solid CATIA STL
  facet normal  -0.000000e+000  0.000000e+000  9.999999e-001
    outer loop
      vertex  0.000000e+000  2.000000e+000  1.800000e+001
      vertex -1.414214e+000  1.414214e+000  1.800000e+001
      vertex  6.123032e-017  1.000000e+000  1.800000e+001
    endloop
  endfacet
  facet normal  0.000000e+000  0.000000e+000  9.999999e-001
    outer loop
      vertex -1.414214e+000 -1.414214e+000  1.800000e+001
      vertex -1.836910e-016 -1.000000e+000  1.800000e+001
      vertex -7.071068e-001 -7.071068e-001  1.800000e+001
    endloop
  endfacet
  facet normal  0.000000e+000  0.000000e+000  1.000000e+000
    outer loop
      vertex -3.673819e-016 -2.000000e+000  1.800000e+001
      vertex  2.400000e+001 -2.000000e+000  1.800000e+001
      vertex  1.700000e+001 -1.000000e+000  1.800000e+001
    endloop
  endfacet
  facet normal  0.000000e+000  0.000000e+000  1.000000e+000
    outer loop
      vertex -3.673819e-016 -2.000000e+000  1.800000e+001
      vertex  1.700000e+001 -1.000000e+000  1.800000e+001
      vertex -1.836910e-016 -1.000000e+000  1.800000e+001
    endloop
  endfacet
  facet normal  0.000000e+000  0.000000e+000  9.999999e-001
    outer loop
      vertex -3.673819e-016 -2.000000e+000  1.800000e+001
      vertex -1.836910e-016 -1.000000e+000  1.800000e+001
      vertex -1.414214e+000 -1.414214e+000  1.800000e+001
    endloop
  endfacet
  facet normal  0.000000e+000  0.000000e+000  1.000000e+000
    outer loop
      vertex  1.700000e+001 -1.000000e+000  1.800000e+001
      vertex  2.400000e+001 -2.000000e+000  1.800000e+001
      vertex  2.230000e+001 -7.000000e-001  1.800000e+001
    endloop
  endfacet
  facet normal  0.000000e+000  0.000000e+000  1.000000e+000
    outer loop
      vertex  2.230000e+001 -7.000000e-001  1.800000e+001
      vertex  2.400000e+001 -2.000000e+000  1.800000e+001
      vertex  2.541421e+001 -1.414214e+000  1.800000e+001
    endloop
  endfacet
  facet normal  0.000000e+000  0.000000e+000  1.000000e+000
    outer loop
      vertex  2.230000e+001 -7.000000e-001  1.800000e+001
      vertex  2.541421e+001 -1.414214e+000  1.800000e+001
      vertex  2.279498e+001 -4.949747e-001  1.800000e+001
    endloop
  endfacet
  facet normal  -0.000000e+000  0.000000e+000  1.000000e+000
    outer loop
      vertex  2.400000e+001  2.000000e+000  1.800000e+001
      vertex  0.000000e+000  2.000000e+000  1.800000e+001
      vertex  1.700000e+001  1.000000e+000  1.800000e+001
    endloop
  endfacet
  facet normal  0.000000e+000  0.000000e+000  1.000000e+000
    outer loop
      vertex  1.700000e+001  1.000000e+000  1.800000e+001
      vertex  0.000000e+000  2.000000e+000  1.800000e+001
      vertex  6.123032e-017  1.000000e+000  1.800000e+001
    endloop
  endfacet
  facet normal  -0.000000e+000  0.000000e+000  1.000000e+000
    outer loop
      vertex  1.700000e+001  1.000000e+000  1.800000e+001
      vertex  6.123032e-017  1.000000e+000  1.800000e+001
      vertex  1.629289e+001  7.071068e-001  1.800000e+001
    endloop
  endfacet
  facet normal  0.000000e+000  0.000000e+000  1.000000e+000
    outer loop
      vertex  1.629289e+001  7.071068e-001  1.800000e+001
      vertex  6.123032e-017  1.000000e+000  1.800000e+001
      vertex  7.071068e-001  7.071068e-001  1.800000e+001
    endloop
  endfacet
  facet normal  -0.000000e+000  0.000000e+000  1.000000e+000
    outer loop
      vertex  1.629289e+001  7.071068e-001  1.800000e+001
      vertex  7.071068e-001  7.071068e-001  1.800000e+001
      vertex  1.600000e+001  1.224606e-016  1.800000e+001
    endloop
  endfacet
  facet normal  0.000000e+000  0.000000e+000  1.000000e+000
    outer loop
      vertex  1.600000e+001  1.224606e-016  1.800000e+001
      vertex  7.071068e-001  7.071068e-001  1.800000e+001
      vertex  1.000000e+000  0.000000e+000  1.800000e+001
    endloop
  endfacet
  facet normal  -0.000000e+000  0.000000e+000  1.000000e+000
    outer loop
      vertex  1.600000e+001  1.224606e-016  1.800000e+001
      vertex  1.000000e+000  0.000000e+000  1.800000e+001
      vertex  1.629289e+001 -7.071068e-001  1.800000e+001
    endloop
  endfacet
  facet normal  0.000000e+000  0.000000e+000  1.000000e+000
    outer loop
      vertex  1.629289e+001 -7.071068e-001  1.800000e+001
      vertex  1.000000e+000  0.000000e+000  1.800000e+001
      vertex  7.071068e-001 -7.071068e-001  1.800000e+001
    endloop
  endfacet
  facet normal  -0.000000e+000  0.000000e+000  1.000000e+000
    outer loop
      vertex  1.629289e+001 -7.071068e-001  1.800000e+001
      vertex  7.071068e-001 -7.071068e-001  1.800000e+001
      vertex  1.700000e+001 -1.000000e+000  1.800000e+001
    endloop
  endfacet
  facet normal  0.000000e+000  0.000000e+000  1.000000e+000
    outer loop
      vertex  1.700000e+001 -1.000000e+000  1.800000e+001
      vertex  7.071068e-001 -7.071068e-001  1.800000e+001
      vertex -1.836910e-016 -1.000000e+000  1.800000e+001
    endloop
  endfacet
  facet normal  0.000000e+000  0.000000e+000  9.999999e-001
    outer loop
      vertex -1.414214e+000 -1.414214e+000  1.800000e+001
      vertex -7.071068e-001 -7.071068e-001  1.800000e+001
      vertex -2.000000e+000 -6.432571e-016  1.800000e+001
    endloop
  endfacet
  facet normal  -0.000000e+000  0.000000e+000  9.999999e-001
    outer loop
      vertex -2.000000e+000 -6.432571e-016  1.800000e+001
      vertex -7.071068e-001 -7.071068e-001  1.800000e+001
      vertex -1.000000e+000  1.224606e-016  1.800000e+001
    endloop
  endfacet
  facet normal  0.000000e+000  0.000000e+000  9.999999e-001
    outer loop
      vertex -2.000000e+000 -6.432571e-016  1.800000e+001
      vertex -1.000000e+000  1.224606e-016  1.800000e+001
      vertex -1.414214e+000  1.414214e+000  1.800000e+001
    endloop
  endfacet
  facet normal  0.000000e+000  0.000000e+000  9.999999e-001
    outer loop
      vertex -1.414214e+000  1.414214e+000  1.800000e+001
      vertex -1.000000e+000  1.224606e-016  1.800000e+001
      vertex -7.071068e-001  7.071068e-001  1.800000e+001
    endloop
  endfacet
  facet normal  0.000000e+000  -0.000000e+000  9.999999e-001
    outer loop
      vertex -1.414214e+000  1.414214e+000  1.800000e+001
      vertex -7.071068e-001  7.071068e-001  1.800000e+001
      vertex  6.123032e-017  1.000000e+000  1.800000e+001
    endloop
  endfacet
  facet normal  -0.000000e+000  0.000000e+000  9.999999e-001
    outer loop
      vertex  2.400000e+001  2.000000e+000  1.800000e+001
      vertex  1.700000e+001  1.000000e+000  1.800000e+001
      vertex  2.230000e+001  7.000000e-001  1.800000e+001
    endloop
  endfacet
  facet normal  0.000000e+000  0.000000e+000  1.000000e+000
    outer loop
      vertex  2.230000e+001  7.000000e-001  1.800000e+001
      vertex  1.700000e+001  1.000000e+000  1.800000e+001
      vertex  1.770711e+001  7.071068e-001  1.800000e+001
    endloop
  endfacet
  facet normal  0.000000e+000  0.000000e+000  9.999999e-001
    outer loop
      vertex  2.230000e+001  7.000000e-001  1.800000e+001
      vertex  1.770711e+001  7.071068e-001  1.800000e+001
      vertex  2.180503e+001  4.949747e-001  1.800000e+001
    endloop
  endfacet
  facet normal  0.000000e+000  0.000000e+000  1.000000e+000
    outer loop
      vertex  2.180503e+001  4.949747e-001  1.800000e+001
      vertex  1.770711e+001  7.071068e-001  1.800000e+001
      vertex  1.800000e+001  0.000000e+000  1.800000e+001
    endloop
  endfacet
  facet normal  0.000000e+000  0.000000e+000  9.999999e-001
    outer loop
      vertex  2.180503e+001  4.949747e-001  1.800000e+001
      vertex  1.800000e+001  0.000000e+000  1.800000e+001
      vertex  2.160000e+001  8.572245e-017  1.800000e+001
    endloop
  endfacet
  facet normal  0.000000e+000  0.000000e+000  1.000000e+000
    outer loop
      vertex  1.700000e+001 -1.000000e+000  1.800000e+001
      vertex  2.230000e+001 -7.000000e-001  1.800000e+001
      vertex  1.770711e+001 -7.071068e-001  1.800000e+001
    endloop
  endfacet
  facet normal  0.000000e+000  0.000000e+000  9.999999e-001
    outer loop
      vertex  1.770711e+001 -7.071068e-001  1.800000e+001
      vertex  2.230000e+001 -7.000000e-001  1.800000e+001
      vertex  2.180503e+001 -4.949747e-001  1.800000e+001
    endloop
  endfacet
  facet normal  0.000000e+000  0.000000e+000  1.000000e+000
    outer loop
      vertex  1.770711e+001 -7.071068e-001  1.800000e+001
      vertex  2.180503e+001 -4.949747e-001  1.800000e+001
      vertex  1.800000e+001  0.000000e+000  1.800000e+001
    endloop
  endfacet
  facet normal  -0.000000e+000  0.000000e+000  9.999999e-001
    outer loop
      vertex  1.800000e+001  0.000000e+000  1.800000e+001
      vertex  2.180503e+001 -4.949747e-001  1.800000e+001
      vertex  2.160000e+001  8.572245e-017  1.800000e+001
    endloop
  endfacet
  facet normal  0.000000e+000  0.000000e+000  1.000000e+000
    outer loop
      vertex  2.541421e+001  1.414214e+000  1.800000e+001
      vertex  2.400000e+001  2.000000e+000  1.800000e+001
      vertex  2.600000e+001 -4.898425e-016  1.800000e+001
    endloop
  endfacet
  facet normal  0.000000e+000  0.000000e+000  1.000000e+000
    outer loop
      vertex  2.600000e+001 -4.898425e-016  1.800000e+001
      vertex  2.400000e+001  2.000000e+000  1.800000e+001
      vertex  2.230000e+001  7.000000e-001  1.800000e+001
    endloop
  endfacet
  facet normal  0.000000e+000  0.000000e+000  1.000000e+000
    outer loop
      vertex  2.600000e+001 -4.898425e-016  1.800000e+001
      vertex  2.230000e+001  7.000000e-001  1.800000e+001
      vertex  2.279498e+001  4.949747e-001  1.800000e+001
    endloop
  endfacet
  facet normal  0.000000e+000  0.000000e+000  1.000000e+000
    outer loop
      vertex  2.279498e+001 -4.949747e-001  1.800000e+001
      vertex  2.541421e+001 -1.414214e+000  1.800000e+001
      vertex  2.300000e+001  0.000000e+000  1.800000e+001
    endloop
  endfacet
  facet normal  0.000000e+000  0.000000e+000  1.000000e+000
    outer loop
      vertex  2.300000e+001  0.000000e+000  1.800000e+001
      vertex  2.541421e+001 -1.414214e+000  1.800000e+001
      vertex  2.600000e+001 -4.898425e-016  1.800000e+001
    endloop
  endfacet
  facet normal  0.000000e+000  0.000000e+000  1.000000e+000
    outer loop
      vertex  2.300000e+001  0.000000e+000  1.800000e+001
      vertex  2.600000e+001 -4.898425e-016  1.800000e+001
      vertex  2.279498e+001  4.949747e-001  1.800000e+001
    endloop
  endfacet
  facet normal  9.238799e-001 -3.826826e-001  0.000000e+000
    outer loop
      vertex  2.300000e+001  0.000000e+000  1.800000e+001
      vertex  2.300000e+001  0.000000e+000  2.000000e+001
      vertex  2.279498e+001 -4.949747e-001  1.800000e+001
    endloop
  endfacet
  facet normal  9.238799e-001 -3.826826e-001  0.000000e+000
    outer loop
      vertex  2.279498e+001 -4.949747e-001  1.800000e+001
      vertex  2.300000e+001  0.000000e+000  2.000000e+001
      vertex  2.279498e+001 -4.949747e-001  2.000000e+001
    endloop
  endfacet
  facet normal  3.826826e-001 -9.238799e-001  0.000000e+000
    outer loop
      vertex  2.279498e+001 -4.949747e-001  1.800000e+001
      vertex  2.279498e+001 -4.949747e-001  2.000000e+001
      vertex  2.230000e+001 -7.000000e-001  1.800000e+001
    endloop
  endfacet
  facet normal  3.826826e-001 -9.238799e-001  0.000000e+000
    outer loop
      vertex  2.230000e+001 -7.000000e-001  1.800000e+001
      vertex  2.279498e+001 -4.949747e-001  2.000000e+001
      vertex  2.230000e+001 -7.000000e-001  2.000000e+001
    endloop
  endfacet
  facet normal -3.826838e-001 -9.238794e-001  -0.000000e+000
    outer loop
      vertex  2.230000e+001 -7.000000e-001  1.800000e+001
      vertex  2.230000e+001 -7.000000e-001  2.000000e+001
      vertex  2.180503e+001 -4.949747e-001  1.800000e+001
    endloop
  endfacet
  facet normal -3.826838e-001 -9.238794e-001  0.000000e+000
    outer loop
      vertex  2.180503e+001 -4.949747e-001  1.800000e+001
      vertex  2.230000e+001 -7.000000e-001  2.000000e+001
      vertex  2.180503e+001 -4.949747e-001  2.000000e+001
    endloop
  endfacet
  facet normal -9.238799e-001 -3.826826e-001  -0.000000e+000
    outer loop
      vertex  2.180503e+001 -4.949747e-001  1.800000e+001
      vertex  2.180503e+001 -4.949747e-001  2.000000e+001
      vertex  2.160000e+001  8.572245e-017  1.800000e+001
    endloop
  endfacet
  facet normal -9.238799e-001 -3.826826e-001  0.000000e+000
    outer loop
      vertex  2.160000e+001  8.572245e-017  1.800000e+001
      vertex  2.180503e+001 -4.949747e-001  2.000000e+001
      vertex  2.160000e+001  8.572245e-017  2.000000e+001
    endloop
  endfacet
  facet normal -9.238799e-001  3.826826e-001  0.000000e+000
    outer loop
      vertex  2.160000e+001  8.572245e-017  1.800000e+001
      vertex  2.160000e+001  8.572245e-017  2.000000e+001
      vertex  2.180503e+001  4.949747e-001  1.800000e+001
    endloop
  endfacet
  facet normal -9.238799e-001  3.826826e-001  0.000000e+000
    outer loop
      vertex  2.180503e+001  4.949747e-001  1.800000e+001
      vertex  2.160000e+001  8.572245e-017  2.000000e+001
      vertex  2.180503e+001  4.949747e-001  2.000000e+001
    endloop
  endfacet
  facet normal -3.826838e-001  9.238794e-001  0.000000e+000
    outer loop
      vertex  2.180503e+001  4.949747e-001  1.800000e+001
      vertex  2.180503e+001  4.949747e-001  2.000000e+001
      vertex  2.230000e+001  7.000000e-001  1.800000e+001
    endloop
  endfacet
  facet normal -3.826838e-001  9.238794e-001  0.000000e+000
    outer loop
      vertex  2.230000e+001  7.000000e-001  1.800000e+001
      vertex  2.180503e+001  4.949747e-001  2.000000e+001
      vertex  2.230000e+001  7.000000e-001  2.000000e+001
    endloop
  endfacet
  facet normal  3.826826e-001  9.238799e-001  0.000000e+000
    outer loop
      vertex  2.230000e+001  7.000000e-001  1.800000e+001
      vertex  2.230000e+001  7.000000e-001  2.000000e+001
      vertex  2.279498e+001  4.949747e-001  1.800000e+001
    endloop
  endfacet
  facet normal  3.826826e-001  9.238799e-001  -0.000000e+000
    outer loop
      vertex  2.279498e+001  4.949747e-001  1.800000e+001
      vertex  2.230000e+001  7.000000e-001  2.000000e+001
      vertex  2.279498e+001  4.949747e-001  2.000000e+001
    endloop
  endfacet
  facet normal  9.238799e-001  3.826826e-001  0.000000e+000
    outer loop
      vertex  2.279498e+001  4.949747e-001  1.800000e+001
      vertex  2.279498e+001  4.949747e-001  2.000000e+001
      vertex  2.300000e+001  0.000000e+000  1.800000e+001
    endloop
  endfacet
  facet normal  9.238799e-001  3.826826e-001  -0.000000e+000
    outer loop
      vertex  2.300000e+001  0.000000e+000  1.800000e+001
      vertex  2.279498e+001  4.949747e-001  2.000000e+001
      vertex  2.300000e+001  0.000000e+000  2.000000e+001
    endloop
  endfacet
  facet normal  0.000000e+000  0.000000e+000  1.000000e+000
    outer loop
      vertex  2.180503e+001  4.949747e-001  2.000000e+001
      vertex  2.279498e+001  4.949747e-001  2.000000e+001
      vertex  2.230000e+001  7.000000e-001  2.000000e+001
    endloop
  endfacet
  facet normal  -0.000000e+000  0.000000e+000  1.000000e+000
    outer loop
      vertex  2.279498e+001  4.949747e-001  2.000000e+001
      vertex  2.180503e+001  4.949747e-001  2.000000e+001
      vertex  2.300000e+001  0.000000e+000  2.000000e+001
    endloop
  endfacet
  facet normal  0.000000e+000  0.000000e+000  1.000000e+000
    outer loop
      vertex  2.300000e+001  0.000000e+000  2.000000e+001
      vertex  2.180503e+001  4.949747e-001  2.000000e+001
      vertex  2.160000e+001  8.572245e-017  2.000000e+001
    endloop
  endfacet
  facet normal  0.000000e+000  0.000000e+000  1.000000e+000
    outer loop
      vertex  2.300000e+001  0.000000e+000  2.000000e+001
      vertex  2.160000e+001  8.572245e-017  2.000000e+001
      vertex  2.279498e+001 -4.949747e-001  2.000000e+001
    endloop
  endfacet
  facet normal  0.000000e+000  0.000000e+000  1.000000e+000
    outer loop
      vertex  2.279498e+001 -4.949747e-001  2.000000e+001
      vertex  2.160000e+001  8.572245e-017  2.000000e+001
      vertex  2.180503e+001 -4.949747e-001  2.000000e+001
    endloop
  endfacet
  facet normal  -0.000000e+000  0.000000e+000  1.000000e+000
    outer loop
      vertex  2.279498e+001 -4.949747e-001  2.000000e+001
      vertex  2.180503e+001 -4.949747e-001  2.000000e+001
      vertex  2.230000e+001 -7.000000e-001  2.000000e+001
    endloop
  endfacet
  facet normal  -0.000000e+000  9.999999e-001  0.000000e+000
    outer loop
      vertex  1.323607e+001  2.000000e+000  6.648859e+000
      vertex  1.400000e+001  2.000000e+000  9.000000e+000
      vertex  2.140000e+001  2.000000e+000  9.000000e+000
    endloop
  endfacet
  facet normal  0.000000e+000  9.999999e-001  0.000000e+000
    outer loop
      vertex  1.400000e+001  2.000000e+000  9.000000e+000
      vertex  1.323607e+001  2.000000e+000  1.135114e+001
      vertex  2.140000e+001  2.000000e+000  9.000000e+000
    endloop
  endfacet
  facet normal  0.000000e+000  1.000000e+000  0.000000e+000
    outer loop
      vertex  2.250000e+001  2.000000e+000  1.010000e+001
      vertex  1.070711e+001  2.000000e+000  1.570711e+001
      vertex  2.327782e+001  2.000000e+000  9.777818e+000
    endloop
  endfacet
  facet normal  -0.000000e+000  1.000000e+000  0.000000e+000
    outer loop
      vertex  1.100000e+001  2.000000e+000  3.000000e+000
      vertex  1.070711e+001  2.000000e+000  3.707107e+000
      vertex  1.123607e+001  2.000000e+000  5.195774e+000
    endloop
  endfacet
  facet normal  -0.000000e+000  1.000000e+000  0.000000e+000
    outer loop
      vertex  1.100000e+001  2.000000e+000  3.000000e+000
      vertex  1.123607e+001  2.000000e+000  5.195774e+000
      vertex  1.323607e+001  2.000000e+000  6.648859e+000
    endloop
  endfacet
  facet normal  -0.000000e+000  1.000000e+000  0.000000e+000
    outer loop
      vertex  1.100000e+001  2.000000e+000  3.000000e+000
      vertex  1.323607e+001  2.000000e+000  6.648859e+000
      vertex  2.140000e+001  2.000000e+000  9.000000e+000
    endloop
  endfacet
  facet normal  0.000000e+000  1.000000e+000  0.000000e+000
    outer loop
      vertex  1.100000e+001  2.000000e+000  3.000000e+000
      vertex  2.140000e+001  2.000000e+000  9.000000e+000
      vertex  2.172218e+001  2.000000e+000  8.222182e+000
    endloop
  endfacet
  facet normal  0.000000e+000  1.000000e+000  0.000000e+000
    outer loop
      vertex  1.100000e+001  2.000000e+000  3.000000e+000
      vertex  2.172218e+001  2.000000e+000  8.222182e+000
      vertex  2.250000e+001  2.000000e+000  7.900000e+000
    endloop
  endfacet
  facet normal  0.000000e+000  1.000000e+000  0.000000e+000
    outer loop
      vertex  1.100000e+001  2.000000e+000  1.500000e+001
      vertex  1.070711e+001  2.000000e+000  1.570711e+001
      vertex  2.250000e+001  2.000000e+000  1.010000e+001
    endloop
  endfacet
  facet normal  0.000000e+000  1.000000e+000  0.000000e+000
    outer loop
      vertex  1.100000e+001  2.000000e+000  1.500000e+001
      vertex  2.250000e+001  2.000000e+000  1.010000e+001
      vertex  2.172218e+001  2.000000e+000  9.777818e+000
    endloop
  endfacet
  facet normal  0.000000e+000  1.000000e+000  0.000000e+000
    outer loop
      vertex  1.100000e+001  2.000000e+000  1.500000e+001
      vertex  2.172218e+001  2.000000e+000  9.777818e+000
      vertex  2.140000e+001  2.000000e+000  9.000000e+000
    endloop
  endfacet
  facet normal  0.000000e+000  1.000000e+000  0.000000e+000
    outer loop
      vertex  1.100000e+001  2.000000e+000  1.500000e+001
      vertex  2.140000e+001  2.000000e+000  9.000000e+000
      vertex  1.323607e+001  2.000000e+000  1.135114e+001
    endloop
  endfacet
  facet normal  0.000000e+000  1.000000e+000  0.000000e+000
    outer loop
      vertex  1.100000e+001  2.000000e+000  1.500000e+001
      vertex  1.323607e+001  2.000000e+000  1.135114e+001
      vertex  1.123607e+001  2.000000e+000  1.280423e+001
    endloop
  endfacet
  facet normal  0.000000e+000  1.000000e+000  0.000000e+000
    outer loop
      vertex  1.100000e+001  2.000000e+000  1.500000e+001
      vertex  1.123607e+001  2.000000e+000  1.280423e+001
      vertex  1.070711e+001  2.000000e+000  1.429289e+001
    endloop
  endfacet
  facet normal  0.000000e+000  1.000000e+000  0.000000e+000
    outer loop
      vertex  0.000000e+000  2.000000e+000  0.000000e+000
      vertex  6.763932e+000  2.000000e+000  1.135114e+001
      vertex  6.000000e+000  2.000000e+000  9.000000e+000
    endloop
  endfacet
  facet normal  0.000000e+000  9.999999e-001  0.000000e+000
    outer loop
      vertex  0.000000e+000  2.000000e+000  0.000000e+000
      vertex  6.000000e+000  2.000000e+000  9.000000e+000
      vertex  6.763932e+000  2.000000e+000  6.648859e+000
    endloop
  endfacet
  facet normal  0.000000e+000  9.999999e-001  0.000000e+000
    outer loop
      vertex  0.000000e+000  2.000000e+000  0.000000e+000
      vertex  6.763932e+000  2.000000e+000  6.648859e+000
      vertex  8.763932e+000  2.000000e+000  5.195774e+000
    endloop
  endfacet
  facet normal  0.000000e+000  1.000000e+000  0.000000e+000
    outer loop
      vertex  0.000000e+000  2.000000e+000  0.000000e+000
      vertex  8.763932e+000  2.000000e+000  5.195774e+000
      vertex  9.000000e+000  2.000000e+000  3.000000e+000
    endloop
  endfacet
  facet normal  0.000000e+000  1.000000e+000  0.000000e+000
    outer loop
      vertex  0.000000e+000  2.000000e+000  0.000000e+000
      vertex  9.000000e+000  2.000000e+000  3.000000e+000
      vertex  9.292893e+000  2.000000e+000  2.292893e+000
    endloop
  endfacet
  facet normal  0.000000e+000  1.000000e+000  0.000000e+000
    outer loop
      vertex  0.000000e+000  2.000000e+000  0.000000e+000
      vertex  9.292893e+000  2.000000e+000  2.292893e+000
      vertex  1.000000e+001  2.000000e+000  2.000000e+000
    endloop
  endfacet
  facet normal  0.000000e+000  1.000000e+000  0.000000e+000
    outer loop
      vertex  0.000000e+000  2.000000e+000  1.800000e+001
      vertex  2.400000e+001  2.000000e+000  1.800000e+001
      vertex  1.000000e+001  2.000000e+000  1.600000e+001
    endloop
  endfacet
  facet normal  0.000000e+000  1.000000e+000  0.000000e+000
    outer loop
      vertex  0.000000e+000  2.000000e+000  1.800000e+001
      vertex  1.000000e+001  2.000000e+000  1.600000e+001
      vertex  9.292893e+000  2.000000e+000  1.570711e+001
    endloop
  endfacet
  facet normal  0.000000e+000  1.000000e+000  0.000000e+000
    outer loop
      vertex  0.000000e+000  2.000000e+000  1.800000e+001
      vertex  9.292893e+000  2.000000e+000  1.570711e+001
      vertex  9.000000e+000  2.000000e+000  1.500000e+001
    endloop
  endfacet
  facet normal  0.000000e+000  1.000000e+000  0.000000e+000
    outer loop
      vertex  0.000000e+000  2.000000e+000  1.800000e+001
      vertex  9.000000e+000  2.000000e+000  1.500000e+001
      vertex  6.763932e+000  2.000000e+000  1.135114e+001
    endloop
  endfacet
  facet normal  0.000000e+000  9.999999e-001  0.000000e+000
    outer loop
      vertex  0.000000e+000  2.000000e+000  1.800000e+001
      vertex  6.763932e+000  2.000000e+000  1.135114e+001
      vertex  0.000000e+000  2.000000e+000  0.000000e+000
    endloop
  endfacet
  facet normal  0.000000e+000  1.000000e+000  0.000000e+000
    outer loop
      vertex  2.400000e+001  2.000000e+000  0.000000e+000
      vertex  0.000000e+000  2.000000e+000  0.000000e+000
      vertex  1.000000e+001  2.000000e+000  2.000000e+000
    endloop
  endfacet
  facet normal  -0.000000e+000  1.000000e+000  0.000000e+000
    outer loop
      vertex  2.400000e+001  2.000000e+000  0.000000e+000
      vertex  1.000000e+001  2.000000e+000  2.000000e+000
      vertex  1.070711e+001  2.000000e+000  2.292893e+000
    endloop
  endfacet
  facet normal  -0.000000e+000  1.000000e+000  0.000000e+000
    outer loop
      vertex  2.400000e+001  2.000000e+000  0.000000e+000
      vertex  1.070711e+001  2.000000e+000  2.292893e+000
      vertex  1.100000e+001  2.000000e+000  3.000000e+000
    endloop
  endfacet
  facet normal  -0.000000e+000  1.000000e+000  0.000000e+000
    outer loop
      vertex  2.400000e+001  2.000000e+000  0.000000e+000
      vertex  1.100000e+001  2.000000e+000  3.000000e+000
      vertex  2.250000e+001  2.000000e+000  7.900000e+000
    endloop
  endfacet
  facet normal  -0.000000e+000  1.000000e+000  0.000000e+000
    outer loop
      vertex  2.400000e+001  2.000000e+000  0.000000e+000
      vertex  2.250000e+001  2.000000e+000  7.900000e+000
      vertex  2.327782e+001  2.000000e+000  8.222182e+000
    endloop
  endfacet
  facet normal  -0.000000e+000  9.999999e-001  0.000000e+000
    outer loop
      vertex  2.400000e+001  2.000000e+000  0.000000e+000
      vertex  2.327782e+001  2.000000e+000  8.222182e+000
      vertex  2.360000e+001  2.000000e+000  9.000000e+000
    endloop
  endfacet
  facet normal  0.000000e+000  9.999999e-001  -0.000000e+000
    outer loop
      vertex  2.400000e+001  2.000000e+000  1.800000e+001
      vertex  2.400000e+001  2.000000e+000  0.000000e+000
      vertex  2.360000e+001  2.000000e+000  9.000000e+000
    endloop
  endfacet
  facet normal  0.000000e+000  9.999999e-001  -0.000000e+000
    outer loop
      vertex  2.400000e+001  2.000000e+000  1.800000e+001
      vertex  2.360000e+001  2.000000e+000  9.000000e+000
      vertex  2.327782e+001  2.000000e+000  9.777818e+000
    endloop
  endfacet
  facet normal  0.000000e+000  1.000000e+000  -0.000000e+000
    outer loop
      vertex  2.400000e+001  2.000000e+000  1.800000e+001
      vertex  2.327782e+001  2.000000e+000  9.777818e+000
      vertex  1.070711e+001  2.000000e+000  1.570711e+001
    endloop
  endfacet
  facet normal  0.000000e+000  1.000000e+000  -0.000000e+000
    outer loop
      vertex  2.400000e+001  2.000000e+000  1.800000e+001
      vertex  1.070711e+001  2.000000e+000  1.570711e+001
      vertex  1.000000e+001  2.000000e+000  1.600000e+001
    endloop
  endfacet
  facet normal  0.000000e+000  9.999999e-001  0.000000e+000
    outer loop
      vertex  8.763932e+000  2.000000e+000  5.195774e+000
      vertex  1.123607e+001  2.000000e+000  5.195774e+000
      vertex  1.070711e+001  2.000000e+000  3.707107e+000
    endloop
  endfacet
  facet normal  0.000000e+000  1.000000e+000  0.000000e+000
    outer loop
      vertex  8.763932e+000  2.000000e+000  5.195774e+000
      vertex  1.070711e+001  2.000000e+000  3.707107e+000
      vertex  1.000000e+001  2.000000e+000  4.000000e+000
    endloop
  endfacet
  facet normal  0.000000e+000  1.000000e+000  0.000000e+000
    outer loop
      vertex  8.763932e+000  2.000000e+000  5.195774e+000
      vertex  1.000000e+001  2.000000e+000  4.000000e+000
      vertex  9.292893e+000  2.000000e+000  3.707107e+000
    endloop
  endfacet
  facet normal  0.000000e+000  1.000000e+000  0.000000e+000
    outer loop
      vertex  8.763932e+000  2.000000e+000  5.195774e+000
      vertex  9.292893e+000  2.000000e+000  3.707107e+000
      vertex  9.000000e+000  2.000000e+000  3.000000e+000
    endloop
  endfacet
  facet normal  0.000000e+000  1.000000e+000  0.000000e+000
    outer loop
      vertex  8.763932e+000  2.000000e+000  1.280423e+001
      vertex  6.763932e+000  2.000000e+000  1.135114e+001
      vertex  9.000000e+000  2.000000e+000  1.500000e+001
    endloop
  endfacet
  facet normal  0.000000e+000  1.000000e+000  0.000000e+000
    outer loop
      vertex  8.763932e+000  2.000000e+000  1.280423e+001
      vertex  9.000000e+000  2.000000e+000  1.500000e+001
      vertex  9.292893e+000  2.000000e+000  1.429289e+001
    endloop
  endfacet
  facet normal  0.000000e+000  1.000000e+000  0.000000e+000
    outer loop
      vertex  8.763932e+000  2.000000e+000  1.280423e+001
      vertex  9.292893e+000  2.000000e+000  1.429289e+001
      vertex  1.000000e+001  2.000000e+000  1.400000e+001
    endloop
  endfacet
  facet normal  -0.000000e+000  1.000000e+000  0.000000e+000
    outer loop
      vertex  8.763932e+000  2.000000e+000  1.280423e+001
      vertex  1.000000e+001  2.000000e+000  1.400000e+001
      vertex  1.070711e+001  2.000000e+000  1.429289e+001
    endloop
  endfacet
  facet normal  0.000000e+000  1.000000e+000  0.000000e+000
    outer loop
      vertex  8.763932e+000  2.000000e+000  1.280423e+001
      vertex  1.070711e+001  2.000000e+000  1.429289e+001
      vertex  1.123607e+001  2.000000e+000  1.280423e+001
    endloop
  endfacet
  facet normal  0.000000e+000 -1.000000e+000  0.000000e+000
    outer loop
      vertex  2.073223e+001  5.000000e-001  1.076777e+001
      vertex  2.250000e+001  5.000000e-001  1.010000e+001
      vertex  2.250000e+001  5.000000e-001  1.150000e+001
    endloop
  endfacet
  facet normal  0.000000e+000 -1.000000e+000  0.000000e+000
    outer loop
      vertex  2.426777e+001  5.000000e-001  7.232233e+000
      vertex  2.250000e+001  5.000000e-001  7.900000e+000
      vertex  2.250000e+001  5.000000e-001  6.500000e+000
    endloop
  endfacet
  facet normal  0.000000e+000 -1.000000e+000  0.000000e+000
    outer loop
      vertex  2.073223e+001  5.000000e-001  7.232233e+000
      vertex  2.250000e+001  5.000000e-001  6.500000e+000
      vertex  2.250000e+001  5.000000e-001  7.900000e+000
    endloop
  endfacet
  facet normal  -0.000000e+000 -1.000000e+000  0.000000e+000
    outer loop
      vertex  2.073223e+001  5.000000e-001  7.232233e+000
      vertex  2.250000e+001  5.000000e-001  7.900000e+000
      vertex  2.172218e+001  5.000000e-001  8.222182e+000
    endloop
  endfacet
  facet normal  -0.000000e+000 -1.000000e+000  0.000000e+000
    outer loop
      vertex  2.073223e+001  5.000000e-001  7.232233e+000
      vertex  2.172218e+001  5.000000e-001  8.222182e+000
      vertex  2.140000e+001  5.000000e-001  9.000000e+000
    endloop
  endfacet
  facet normal  -0.000000e+000 -1.000000e+000  0.000000e+000
    outer loop
      vertex  2.073223e+001  5.000000e-001  7.232233e+000
      vertex  2.140000e+001  5.000000e-001  9.000000e+000
      vertex  2.000000e+001  5.000000e-001  9.000000e+000
    endloop
  endfacet
  facet normal  0.000000e+000 -1.000000e+000  0.000000e+000
    outer loop
      vertex  2.000000e+001  5.000000e-001  9.000000e+000
      vertex  2.140000e+001  5.000000e-001  9.000000e+000
      vertex  2.073223e+001  5.000000e-001  1.076777e+001
    endloop
  endfacet
  facet normal  0.000000e+000 -1.000000e+000  0.000000e+000
    outer loop
      vertex  2.073223e+001  5.000000e-001  1.076777e+001
      vertex  2.140000e+001  5.000000e-001  9.000000e+000
      vertex  2.172218e+001  5.000000e-001  9.777818e+000
    endloop
  endfacet
  facet normal  0.000000e+000 -1.000000e+000  0.000000e+000
    outer loop
      vertex  2.073223e+001  5.000000e-001  1.076777e+001
      vertex  2.172218e+001  5.000000e-001  9.777818e+000
      vertex  2.250000e+001  5.000000e-001  1.010000e+001
    endloop
  endfacet
  facet normal  0.000000e+000 -1.000000e+000  0.000000e+000
    outer loop
      vertex  2.250000e+001  5.000000e-001  1.150000e+001
      vertex  2.250000e+001  5.000000e-001  1.010000e+001
      vertex  2.426777e+001  5.000000e-001  1.076777e+001
    endloop
  endfacet
  facet normal  0.000000e+000 -1.000000e+000  0.000000e+000
    outer loop
      vertex  2.426777e+001  5.000000e-001  1.076777e+001
      vertex  2.250000e+001  5.000000e-001  1.010000e+001
      vertex  2.327782e+001  5.000000e-001  9.777818e+000
    endloop
  endfacet
  facet normal  0.000000e+000 -9.999999e-001  0.000000e+000
    outer loop
      vertex  2.426777e+001  5.000000e-001  1.076777e+001
      vertex  2.327782e+001  5.000000e-001  9.777818e+000
      vertex  2.500000e+001  5.000000e-001  9.000000e+000
    endloop
  endfacet
  facet normal  0.000000e+000 -1.000000e+000  0.000000e+000
    outer loop
      vertex  2.500000e+001  5.000000e-001  9.000000e+000
      vertex  2.327782e+001  5.000000e-001  9.777818e+000
      vertex  2.360000e+001  5.000000e-001  9.000000e+000
    endloop
  endfacet
  facet normal  0.000000e+000 -1.000000e+000  0.000000e+000
    outer loop
      vertex  2.500000e+001  5.000000e-001  9.000000e+000
      vertex  2.360000e+001  5.000000e-001  9.000000e+000
      vertex  2.426777e+001  5.000000e-001  7.232233e+000
    endloop
  endfacet
  facet normal  0.000000e+000 -1.000000e+000  0.000000e+000
    outer loop
      vertex  2.426777e+001  5.000000e-001  7.232233e+000
      vertex  2.360000e+001  5.000000e-001  9.000000e+000
      vertex  2.327782e+001  5.000000e-001  8.222182e+000
    endloop
  endfacet
  facet normal  0.000000e+000 -1.000000e+000  -0.000000e+000
    outer loop
      vertex  2.426777e+001  5.000000e-001  7.232233e+000
      vertex  2.327782e+001  5.000000e-001  8.222182e+000
      vertex  2.250000e+001  5.000000e-001  7.900000e+000
    endloop
  endfacet
  facet normal  3.826838e-001  0.000000e+000 -9.238793e-001
    outer loop
      vertex  2.250000e+001  2.000000e+000  1.010000e+001
      vertex  2.172218e+001  5.000000e-001  9.777818e+000
      vertex  2.172218e+001  2.000000e+000  9.777818e+000
    endloop
  endfacet
  facet normal  9.238791e-001  0.000000e+000 -3.826844e-001
    outer loop
      vertex  2.172218e+001  2.000000e+000  9.777818e+000
      vertex  2.172218e+001  5.000000e-001  9.777818e+000
      vertex  2.140000e+001  5.000000e-001  9.000000e+000
    endloop
  endfacet
  facet normal  9.238791e-001  0.000000e+000 -3.826844e-001
    outer loop
      vertex  2.172218e+001  2.000000e+000  9.777818e+000
      vertex  2.140000e+001  5.000000e-001  9.000000e+000
      vertex  2.140000e+001  2.000000e+000  9.000000e+000
    endloop
  endfacet
  facet normal  3.826838e-001  0.000000e+000 -9.238793e-001
    outer loop
      vertex  2.172218e+001  5.000000e-001  9.777818e+000
      vertex  2.250000e+001  2.000000e+000  1.010000e+001
      vertex  2.250000e+001  5.000000e-001  1.010000e+001
    endloop
  endfacet
  facet normal -3.826838e-001  0.000000e+000 -9.238793e-001
    outer loop
      vertex  2.250000e+001  5.000000e-001  1.010000e+001
      vertex  2.250000e+001  2.000000e+000  1.010000e+001
      vertex  2.327782e+001  2.000000e+000  9.777818e+000
    endloop
  endfacet
  facet normal -3.826838e-001  -0.000000e+000 -9.238793e-001
    outer loop
      vertex  2.250000e+001  5.000000e-001  1.010000e+001
      vertex  2.327782e+001  2.000000e+000  9.777818e+000
      vertex  2.327782e+001  5.000000e-001  9.777818e+000
    endloop
  endfacet
  facet normal -9.238791e-001  0.000000e+000 -3.826844e-001
    outer loop
      vertex  2.327782e+001  5.000000e-001  9.777818e+000
      vertex  2.327782e+001  2.000000e+000  9.777818e+000
      vertex  2.360000e+001  2.000000e+000  9.000000e+000
    endloop
  endfacet
  facet normal -9.238791e-001  -0.000000e+000 -3.826844e-001
    outer loop
      vertex  2.327782e+001  5.000000e-001  9.777818e+000
      vertex  2.360000e+001  2.000000e+000  9.000000e+000
      vertex  2.360000e+001  5.000000e-001  9.000000e+000
    endloop
  endfacet
  facet normal -3.826834e-001  0.000000e+000  9.238796e-001
    outer loop
      vertex  2.250000e+001  2.000000e+000  7.900000e+000
      vertex  2.327782e+001  5.000000e-001  8.222182e+000
      vertex  2.327782e+001  2.000000e+000  8.222182e+000
    endloop
  endfacet
  facet normal -9.238791e-001  0.000000e+000  3.826844e-001
    outer loop
      vertex  2.327782e+001  2.000000e+000  8.222182e+000
      vertex  2.327782e+001  5.000000e-001  8.222182e+000
      vertex  2.360000e+001  5.000000e-001  9.000000e+000
    endloop
  endfacet
  facet normal -9.238791e-001  0.000000e+000  3.826844e-001
    outer loop
      vertex  2.327782e+001  2.000000e+000  8.222182e+000
      vertex  2.360000e+001  5.000000e-001  9.000000e+000
      vertex  2.360000e+001  2.000000e+000  9.000000e+000
    endloop
  endfacet
  facet normal -3.826834e-001  0.000000e+000  9.238796e-001
    outer loop
      vertex  2.327782e+001  5.000000e-001  8.222182e+000
      vertex  2.250000e+001  2.000000e+000  7.900000e+000
      vertex  2.250000e+001  5.000000e-001  7.900000e+000
    endloop
  endfacet
  facet normal  3.826834e-001  -0.000000e+000  9.238796e-001
    outer loop
      vertex  2.250000e+001  5.000000e-001  7.900000e+000
      vertex  2.250000e+001  2.000000e+000  7.900000e+000
      vertex  2.172218e+001  2.000000e+000  8.222182e+000
    endloop
  endfacet
  facet normal  3.826834e-001  0.000000e+000  9.238796e-001
    outer loop
      vertex  2.250000e+001  5.000000e-001  7.900000e+000
      vertex  2.172218e+001  2.000000e+000  8.222182e+000
      vertex  2.172218e+001  5.000000e-001  8.222182e+000
    endloop
  endfacet
  facet normal  9.238791e-001  -0.000000e+000  3.826844e-001
    outer loop
      vertex  2.172218e+001  5.000000e-001  8.222182e+000
      vertex  2.172218e+001  2.000000e+000  8.222182e+000
      vertex  2.140000e+001  2.000000e+000  9.000000e+000
    endloop
  endfacet
  facet normal  9.238791e-001  0.000000e+000  3.826844e-001
    outer loop
      vertex  2.172218e+001  5.000000e-001  8.222182e+000
      vertex  2.140000e+001  2.000000e+000  9.000000e+000
      vertex  2.140000e+001  5.000000e-001  9.000000e+000
    endloop
  endfacet
  facet normal  3.826835e-001  9.238795e-001  0.000000e+000
    outer loop
      vertex  2.400000e+001  2.000000e+000  0.000000e+000
      vertex  2.400000e+001  2.000000e+000  1.800000e+001
      vertex  2.541421e+001  1.414214e+000  0.000000e+000
    endloop
  endfacet
  facet normal  3.826835e-001  9.238795e-001  -0.000000e+000
    outer loop
      vertex  2.541421e+001  1.414214e+000  0.000000e+000
      vertex  2.400000e+001  2.000000e+000  1.800000e+001
      vertex  2.541421e+001  1.414214e+000  1.800000e+001
    endloop
  endfacet
  facet normal  9.238794e-001  3.826837e-001  0.000000e+000
    outer loop
      vertex  2.541421e+001  1.414214e+000  0.000000e+000
      vertex  2.541421e+001  1.414214e+000  1.800000e+001
      vertex  2.600000e+001 -4.898425e-016  0.000000e+000
    endloop
  endfacet
  facet normal  9.238794e-001  3.826837e-001  -0.000000e+000
    outer loop
      vertex  2.600000e+001 -4.898425e-016  0.000000e+000
      vertex  2.541421e+001  1.414214e+000  1.800000e+001
      vertex  2.600000e+001 -4.898425e-016  1.800000e+001
    endloop
  endfacet
  facet normal  9.238794e-001 -3.826837e-001  0.000000e+000
    outer loop
      vertex  2.600000e+001 -4.898425e-016  0.000000e+000
      vertex  2.600000e+001 -4.898425e-016  1.800000e+001
      vertex  2.541421e+001 -1.414214e+000  0.000000e+000
    endloop
  endfacet
  facet normal  9.238794e-001 -3.826837e-001  0.000000e+000
    outer loop
      vertex  2.541421e+001 -1.414214e+000  0.000000e+000
      vertex  2.600000e+001 -4.898425e-016  1.800000e+001
      vertex  2.541421e+001 -1.414214e+000  1.800000e+001
    endloop
  endfacet
  facet normal  6.087618e-001 -7.933531e-001  0.000000e+000
    outer loop
      vertex  2.541421e+001 -1.414214e+000  0.000000e+000
      vertex  2.541421e+001 -1.414214e+000  1.800000e+001
      vertex  2.500000e+001 -1.732051e+000  9.000000e+000
    endloop
  endfacet
  facet normal  4.961930e-001 -8.681771e-001  7.823260e-003
    outer loop
      vertex  2.500000e+001 -1.732051e+000  9.000000e+000
      vertex  2.541421e+001 -1.414214e+000  1.800000e+001
      vertex  2.484629e+001 -1.812122e+000  9.863075e+000
    endloop
  endfacet
  facet normal  3.826183e-001 -9.237219e-001  1.846646e-002
    outer loop
      vertex  2.484629e+001 -1.812122e+000  9.863075e+000
      vertex  2.541421e+001 -1.414214e+000  1.800000e+001
      vertex  2.400000e+001 -2.000000e+000  1.800000e+001
    endloop
  endfacet
  facet normal  2.167249e-001 -9.762326e-001  0.000000e+000
    outer loop
      vertex  2.484629e+001 -1.812122e+000  9.863075e+000
      vertex  2.400000e+001 -2.000000e+000  1.800000e+001
      vertex  2.400000e+001 -2.000000e+000  1.100000e+001
    endloop
  endfacet
  facet normal  3.826404e-001 -9.237754e-001 -1.501284e-002
    outer loop
      vertex  2.541421e+001 -1.414214e+000  0.000000e+000
      vertex  2.500000e+001 -1.732051e+000  9.000000e+000
      vertex  2.400000e+001 -2.000000e+000  0.000000e+000
    endloop
  endfacet
  facet normal  6.841330e-001 -7.273287e-001 -5.436065e-002
    outer loop
      vertex  2.400000e+001 -2.000000e+000  0.000000e+000
      vertex  2.500000e+001 -1.732051e+000  9.000000e+000
      vertex  2.484629e+001 -1.812122e+000  8.136925e+000
    endloop
  endfacet
  facet normal  2.167249e-001 -9.762326e-001  0.000000e+000
    outer loop
      vertex  2.400000e+001 -2.000000e+000  0.000000e+000
      vertex  2.484629e+001 -1.812122e+000  8.136925e+000
      vertex  2.400000e+001 -2.000000e+000  7.000000e+000
    endloop
  endfacet
  facet normal  0.000000e+000 -1.000000e+000  0.000000e+000
    outer loop
      vertex  1.000000e+001 -2.000000e+000  1.600000e+001
      vertex  1.070711e+001 -2.000000e+000  1.570711e+001
      vertex  2.400000e+001 -2.000000e+000  1.800000e+001
    endloop
  endfacet
  facet normal  0.000000e+000 -1.000000e+000  0.000000e+000
    outer loop
      vertex  1.070711e+001 -2.000000e+000  1.570711e+001
      vertex  1.100000e+001 -2.000000e+000  1.500000e+001
      vertex  2.400000e+001 -2.000000e+000  1.800000e+001
    endloop
  endfacet
  facet normal  0.000000e+000 -1.000000e+000  0.000000e+000
    outer loop
      vertex  2.400000e+001 -2.000000e+000  1.800000e+001
      vertex  2.226386e+001 -2.000000e+000  1.148882e+001
      vertex  2.400000e+001 -2.000000e+000  1.100000e+001
    endloop
  endfacet
  facet normal  0.000000e+000 -1.000000e+000  0.000000e+000
    outer loop
      vertex  9.000000e+000 -2.000000e+000  1.500000e+001
      vertex  9.292893e+000 -2.000000e+000  1.570711e+001
      vertex  6.763932e+000 -2.000000e+000  1.135114e+001
    endloop
  endfacet
  facet normal  0.000000e+000 -1.000000e+000  0.000000e+000
    outer loop
      vertex  9.000000e+000 -2.000000e+000  1.500000e+001
      vertex  6.763932e+000 -2.000000e+000  1.135114e+001
      vertex  8.763932e+000 -2.000000e+000  1.280423e+001
    endloop
  endfacet
  facet normal  0.000000e+000 -1.000000e+000  0.000000e+000
    outer loop
      vertex  9.000000e+000 -2.000000e+000  1.500000e+001
      vertex  8.763932e+000 -2.000000e+000  1.280423e+001
      vertex  9.292893e+000 -2.000000e+000  1.429289e+001
    endloop
  endfacet
  facet normal  0.000000e+000 -9.999999e-001  0.000000e+000
    outer loop
      vertex -3.673819e-016 -2.000000e+000  1.800000e+001
      vertex -3.673819e-016 -2.000000e+000  0.000000e+000
      vertex  6.763932e+000 -2.000000e+000  1.135114e+001
    endloop
  endfacet
  facet normal  0.000000e+000 -1.000000e+000  0.000000e+000
    outer loop
      vertex -3.673819e-016 -2.000000e+000  1.800000e+001
      vertex  6.763932e+000 -2.000000e+000  1.135114e+001
      vertex  9.292893e+000 -2.000000e+000  1.570711e+001
    endloop
  endfacet
  facet normal  0.000000e+000 -1.000000e+000  0.000000e+000
    outer loop
      vertex -3.673819e-016 -2.000000e+000  1.800000e+001
      vertex  9.292893e+000 -2.000000e+000  1.570711e+001
      vertex  1.000000e+001 -2.000000e+000  1.600000e+001
    endloop
  endfacet
  facet normal  0.000000e+000 -1.000000e+000  0.000000e+000
    outer loop
      vertex -3.673819e-016 -2.000000e+000  1.800000e+001
      vertex  1.000000e+001 -2.000000e+000  1.600000e+001
      vertex  2.400000e+001 -2.000000e+000  1.800000e+001
    endloop
  endfacet
  facet normal  0.000000e+000 -1.000000e+000  -0.000000e+000
    outer loop
      vertex  2.400000e+001 -2.000000e+000  0.000000e+000
      vertex  2.400000e+001 -2.000000e+000  7.000000e+000
      vertex  2.226386e+001 -2.000000e+000  6.511178e+000
    endloop
  endfacet
  facet normal  0.000000e+000 -1.000000e+000  -0.000000e+000
    outer loop
      vertex  2.400000e+001 -2.000000e+000  0.000000e+000
      vertex  2.226386e+001 -2.000000e+000  6.511178e+000
      vertex  1.123607e+001 -2.000000e+000  5.195774e+000
    endloop
  endfacet
  facet normal  0.000000e+000 -1.000000e+000  -0.000000e+000
    outer loop
      vertex  2.400000e+001 -2.000000e+000  0.000000e+000
      vertex  1.123607e+001 -2.000000e+000  5.195774e+000
      vertex  1.100000e+001 -2.000000e+000  3.000000e+000
    endloop
  endfacet
  facet normal  0.000000e+000 -1.000000e+000  -0.000000e+000
    outer loop
      vertex  2.400000e+001 -2.000000e+000  0.000000e+000
      vertex  1.100000e+001 -2.000000e+000  3.000000e+000
      vertex  1.070711e+001 -2.000000e+000  2.292893e+000
    endloop
  endfacet
  facet normal  0.000000e+000 -1.000000e+000  -0.000000e+000
    outer loop
      vertex  2.400000e+001 -2.000000e+000  0.000000e+000
      vertex  1.070711e+001 -2.000000e+000  2.292893e+000
      vertex  1.000000e+001 -2.000000e+000  2.000000e+000
    endloop
  endfacet
  facet normal  0.000000e+000 -1.000000e+000  0.000000e+000
    outer loop
      vertex -3.673819e-016 -2.000000e+000  0.000000e+000
      vertex  2.400000e+001 -2.000000e+000  0.000000e+000
      vertex  1.000000e+001 -2.000000e+000  2.000000e+000
    endloop
  endfacet
  facet normal  -0.000000e+000 -1.000000e+000  0.000000e+000
    outer loop
      vertex -3.673819e-016 -2.000000e+000  0.000000e+000
      vertex  1.000000e+001 -2.000000e+000  2.000000e+000
      vertex  9.292893e+000 -2.000000e+000  2.292893e+000
    endloop
  endfacet
  facet normal  -0.000000e+000 -1.000000e+000  0.000000e+000
    outer loop
      vertex -3.673819e-016 -2.000000e+000  0.000000e+000
      vertex  9.292893e+000 -2.000000e+000  2.292893e+000
      vertex  9.000000e+000 -2.000000e+000  3.000000e+000
    endloop
  endfacet
  facet normal  -0.000000e+000 -1.000000e+000  0.000000e+000
    outer loop
      vertex -3.673819e-016 -2.000000e+000  0.000000e+000
      vertex  9.000000e+000 -2.000000e+000  3.000000e+000
      vertex  6.763932e+000 -2.000000e+000  6.648859e+000
    endloop
  endfacet
  facet normal  -0.000000e+000 -9.999999e-001  0.000000e+000
    outer loop
      vertex -3.673819e-016 -2.000000e+000  0.000000e+000
      vertex  6.763932e+000 -2.000000e+000  6.648859e+000
      vertex  6.000000e+000 -2.000000e+000  9.000000e+000
    endloop
  endfacet
  facet normal  -0.000000e+000 -1.000000e+000  0.000000e+000
    outer loop
      vertex -3.673819e-016 -2.000000e+000  0.000000e+000
      vertex  6.000000e+000 -2.000000e+000  9.000000e+000
      vertex  6.763932e+000 -2.000000e+000  1.135114e+001
    endloop
  endfacet
  facet normal  0.000000e+000 -9.999999e-001  0.000000e+000
    outer loop
      vertex  1.123607e+001 -2.000000e+000  5.195774e+000
      vertex  8.763932e+000 -2.000000e+000  5.195774e+000
      vertex  9.292893e+000 -2.000000e+000  3.707107e+000
    endloop
  endfacet
  facet normal  0.000000e+000 -1.000000e+000  0.000000e+000
    outer loop
      vertex  1.123607e+001 -2.000000e+000  5.195774e+000
      vertex  9.292893e+000 -2.000000e+000  3.707107e+000
      vertex  1.000000e+001 -2.000000e+000  4.000000e+000
    endloop
  endfacet
  facet normal  0.000000e+000 -1.000000e+000  0.000000e+000
    outer loop
      vertex  1.123607e+001 -2.000000e+000  5.195774e+000
      vertex  1.000000e+001 -2.000000e+000  4.000000e+000
      vertex  1.070711e+001 -2.000000e+000  3.707107e+000
    endloop
  endfacet
  facet normal  0.000000e+000 -1.000000e+000  0.000000e+000
    outer loop
      vertex  1.123607e+001 -2.000000e+000  5.195774e+000
      vertex  1.070711e+001 -2.000000e+000  3.707107e+000
      vertex  1.100000e+001 -2.000000e+000  3.000000e+000
    endloop
  endfacet
  facet normal  0.000000e+000 -1.000000e+000  -0.000000e+000
    outer loop
      vertex  1.123607e+001 -2.000000e+000  1.280423e+001
      vertex  1.100000e+001 -2.000000e+000  1.500000e+001
      vertex  1.070711e+001 -2.000000e+000  1.429289e+001
    endloop
  endfacet
  facet normal  0.000000e+000 -1.000000e+000  -0.000000e+000
    outer loop
      vertex  1.123607e+001 -2.000000e+000  1.280423e+001
      vertex  1.070711e+001 -2.000000e+000  1.429289e+001
      vertex  1.000000e+001 -2.000000e+000  1.400000e+001
    endloop
  endfacet
  facet normal  -0.000000e+000 -1.000000e+000  -0.000000e+000
    outer loop
      vertex  1.123607e+001 -2.000000e+000  1.280423e+001
      vertex  1.000000e+001 -2.000000e+000  1.400000e+001
      vertex  9.292893e+000 -2.000000e+000  1.429289e+001
    endloop
  endfacet
  facet normal  0.000000e+000 -1.000000e+000  -0.000000e+000
    outer loop
      vertex  1.123607e+001 -2.000000e+000  1.280423e+001
      vertex  9.292893e+000 -2.000000e+000  1.429289e+001
      vertex  8.763932e+000 -2.000000e+000  1.280423e+001
    endloop
  endfacet
  facet normal  0.000000e+000 -1.000000e+000  0.000000e+000
    outer loop
      vertex  9.292893e+000 -2.000000e+000  3.707107e+000
      vertex  8.763932e+000 -2.000000e+000  5.195774e+000
      vertex  9.000000e+000 -2.000000e+000  3.000000e+000
    endloop
  endfacet
  facet normal  0.000000e+000 -1.000000e+000  0.000000e+000
    outer loop
      vertex  9.000000e+000 -2.000000e+000  3.000000e+000
      vertex  8.763932e+000 -2.000000e+000  5.195774e+000
      vertex  6.763932e+000 -2.000000e+000  6.648859e+000
    endloop
  endfacet
  facet normal  -0.000000e+000 -1.000000e+000  -0.000000e+000
    outer loop
      vertex  2.065063e+001 -2.000000e+000  7.317792e+000
      vertex  2.000000e+001 -2.000000e+000  9.000000e+000
      vertex  1.400000e+001 -2.000000e+000  9.000000e+000
    endloop
  endfacet
  facet normal  0.000000e+000 -1.000000e+000  0.000000e+000
    outer loop
      vertex  1.400000e+001 -2.000000e+000  9.000000e+000
      vertex  2.000000e+001 -2.000000e+000  9.000000e+000
      vertex  2.065063e+001 -2.000000e+000  1.068221e+001
    endloop
  endfacet
  facet normal  -0.000000e+000 -1.000000e+000  0.000000e+000
    outer loop
      vertex  1.400000e+001 -2.000000e+000  9.000000e+000
      vertex  2.065063e+001 -2.000000e+000  1.068221e+001
      vertex  1.323607e+001 -2.000000e+000  1.135114e+001
    endloop
  endfacet
  facet normal  0.000000e+000 -1.000000e+000  0.000000e+000
    outer loop
      vertex  1.323607e+001 -2.000000e+000  1.135114e+001
      vertex  2.065063e+001 -2.000000e+000  1.068221e+001
      vertex  2.226386e+001 -2.000000e+000  1.148882e+001
    endloop
  endfacet
  facet normal  -0.000000e+000 -1.000000e+000  0.000000e+000
    outer loop
      vertex  1.323607e+001 -2.000000e+000  1.135114e+001
      vertex  2.226386e+001 -2.000000e+000  1.148882e+001
      vertex  1.123607e+001 -2.000000e+000  1.280423e+001
    endloop
  endfacet
  facet normal  0.000000e+000 -1.000000e+000  0.000000e+000
    outer loop
      vertex  1.123607e+001 -2.000000e+000  1.280423e+001
      vertex  2.226386e+001 -2.000000e+000  1.148882e+001
      vertex  2.400000e+001 -2.000000e+000  1.800000e+001
    endloop
  endfacet
  facet normal  0.000000e+000 -1.000000e+000  0.000000e+000
    outer loop
      vertex  1.123607e+001 -2.000000e+000  1.280423e+001
      vertex  2.400000e+001 -2.000000e+000  1.800000e+001
      vertex  1.100000e+001 -2.000000e+000  1.500000e+001
    endloop
  endfacet
  facet normal  -0.000000e+000 -1.000000e+000  0.000000e+000
    outer loop
      vertex  1.123607e+001 -2.000000e+000  5.195774e+000
      vertex  2.226386e+001 -2.000000e+000  6.511178e+000
      vertex  1.323607e+001 -2.000000e+000  6.648859e+000
    endloop
  endfacet
  facet normal  0.000000e+000 -1.000000e+000  0.000000e+000
    outer loop
      vertex  1.323607e+001 -2.000000e+000  6.648859e+000
      vertex  2.226386e+001 -2.000000e+000  6.511178e+000
      vertex  2.065063e+001 -2.000000e+000  7.317792e+000
    endloop
  endfacet
  facet normal  -0.000000e+000 -1.000000e+000  0.000000e+000
    outer loop
      vertex  1.323607e+001 -2.000000e+000  6.648859e+000
      vertex  2.065063e+001 -2.000000e+000  7.317792e+000
      vertex  1.400000e+001 -2.000000e+000  9.000000e+000
    endloop
  endfacet
  facet normal  3.824874e-001 -3.199997e-002 -9.234064e-001
    outer loop
      vertex  2.250000e+001  5.000000e-001  1.150000e+001
      vertex  2.226386e+001 -2.000000e+000  1.148882e+001
      vertex  2.073223e+001  5.000000e-001  1.076777e+001
    endloop
  endfacet
  facet normal -2.708977e-001  2.989019e-002 -9.621440e-001
    outer loop
      vertex  2.400000e+001 -2.000000e+000  1.100000e+001
      vertex  2.226386e+001 -2.000000e+000  1.148882e+001
      vertex  2.250000e+001  5.000000e-001  1.150000e+001
    endloop
  endfacet
  facet normal -3.822994e-001 -4.478916e-002 -9.229524e-001
    outer loop
      vertex  2.400000e+001 -2.000000e+000  1.100000e+001
      vertex  2.250000e+001  5.000000e-001  1.150000e+001
      vertex  2.426777e+001  5.000000e-001  1.076777e+001
    endloop
  endfacet
  facet normal -8.042235e-001  3.100403e-002 -5.935176e-001
    outer loop
      vertex  2.400000e+001 -2.000000e+000  1.100000e+001
      vertex  2.426777e+001  5.000000e-001  1.076777e+001
      vertex  2.484629e+001 -1.812122e+000  9.863075e+000
    endloop
  endfacet
  facet normal  4.471563e-001  1.601066e-002 -8.943126e-001
    outer loop
      vertex  2.226386e+001 -2.000000e+000  1.148882e+001
      vertex  2.065063e+001 -2.000000e+000  1.068221e+001
      vertex  2.073223e+001  5.000000e-001  1.076777e+001
    endloop
  endfacet
  facet normal  9.325180e-001 -1.809605e-002 -3.606699e-001
    outer loop
      vertex  2.073223e+001  5.000000e-001  1.076777e+001
      vertex  2.065063e+001 -2.000000e+000  1.068221e+001
      vertex  2.000000e+001 -2.000000e+000  9.000000e+000
    endloop
  endfacet
  facet normal  9.238796e-001  0.000000e+000 -3.826835e-001
    outer loop
      vertex  2.073223e+001  5.000000e-001  1.076777e+001
      vertex  2.000000e+001 -2.000000e+000  9.000000e+000
      vertex  2.000000e+001  5.000000e-001  9.000000e+000
    endloop
  endfacet
  facet normal -9.845093e-001  0.000000e+000 -1.753319e-001
    outer loop
      vertex  2.500000e+001 -1.732051e+000  9.000000e+000
      vertex  2.484629e+001 -1.812122e+000  9.863075e+000
      vertex  2.500000e+001  5.000000e-001  9.000000e+000
    endloop
  endfacet
  facet normal -9.208316e-001 -8.116269e-002 -3.814209e-001
    outer loop
      vertex  2.500000e+001  5.000000e-001  9.000000e+000
      vertex  2.484629e+001 -1.812122e+000  9.863075e+000
      vertex  2.426777e+001  5.000000e-001  1.076777e+001
    endloop
  endfacet
  facet normal  3.824874e-001 -3.200015e-002  9.234064e-001
    outer loop
      vertex  2.226386e+001 -2.000000e+000  6.511178e+000
      vertex  2.250000e+001  5.000000e-001  6.500000e+000
      vertex  2.073223e+001  5.000000e-001  7.232233e+000
    endloop
  endfacet
  facet normal -8.042236e-001  3.100403e-002  5.935177e-001
    outer loop
      vertex  2.400000e+001 -2.000000e+000  7.000000e+000
      vertex  2.484629e+001 -1.812122e+000  8.136925e+000
      vertex  2.426777e+001  5.000000e-001  7.232233e+000
    endloop
  endfacet
  facet normal -3.822994e-001 -4.478916e-002  9.229524e-001
    outer loop
      vertex  2.400000e+001 -2.000000e+000  7.000000e+000
      vertex  2.426777e+001  5.000000e-001  7.232233e+000
      vertex  2.250000e+001  5.000000e-001  6.500000e+000
    endloop
  endfacet
  facet normal -2.708980e-001  2.989003e-002  9.621440e-001
    outer loop
      vertex  2.400000e+001 -2.000000e+000  7.000000e+000
      vertex  2.250000e+001  5.000000e-001  6.500000e+000
      vertex  2.226386e+001 -2.000000e+000  6.511178e+000
    endloop
  endfacet
  facet normal -9.676040e-001 -1.685638e-001  1.879595e-001
    outer loop
      vertex  2.484629e+001 -1.812122e+000  8.136925e+000
      vertex  2.500000e+001 -1.732051e+000  9.000000e+000
      vertex  2.426777e+001  5.000000e-001  7.232233e+000
    endloop
  endfacet
  facet normal -9.238795e-001  0.000000e+000  3.826834e-001
    outer loop
      vertex  2.426777e+001  5.000000e-001  7.232233e+000
      vertex  2.500000e+001 -1.732051e+000  9.000000e+000
      vertex  2.500000e+001  5.000000e-001  9.000000e+000
    endloop
  endfacet
  facet normal  4.471563e-001  1.601049e-002  8.943126e-001
    outer loop
      vertex  2.226386e+001 -2.000000e+000  6.511178e+000
      vertex  2.073223e+001  5.000000e-001  7.232233e+000
      vertex  2.065063e+001 -2.000000e+000  7.317792e+000
    endloop
  endfacet
  facet normal  9.237451e-001 -1.705827e-002  3.826278e-001
    outer loop
      vertex  2.065063e+001 -2.000000e+000  7.317792e+000
      vertex  2.073223e+001  5.000000e-001  7.232233e+000
      vertex  2.000000e+001  5.000000e-001  9.000000e+000
    endloop
  endfacet
  facet normal  9.326707e-001  0.000000e+000  3.607289e-001
    outer loop
      vertex  2.065063e+001 -2.000000e+000  7.317792e+000
      vertex  2.000000e+001  5.000000e-001  9.000000e+000
      vertex  2.000000e+001 -2.000000e+000  9.000000e+000
    endloop
  endfacet
  facet normal  5.877852e-001  0.000000e+000 -8.090170e-001
    outer loop
      vertex  8.763932e+000  2.000000e+000  1.280423e+001
      vertex  6.763932e+000 -2.000000e+000  1.135114e+001
      vertex  6.763932e+000  2.000000e+000  1.135114e+001
    endloop
  endfacet
  facet normal  9.510565e-001  0.000000e+000 -3.090171e-001
    outer loop
      vertex  6.763932e+000  2.000000e+000  1.135114e+001
      vertex  6.763932e+000 -2.000000e+000  1.135114e+001
      vertex  6.000000e+000 -2.000000e+000  9.000000e+000
    endloop
  endfacet
  facet normal  9.510565e-001  0.000000e+000 -3.090171e-001
    outer loop
      vertex  6.763932e+000  2.000000e+000  1.135114e+001
      vertex  6.000000e+000 -2.000000e+000  9.000000e+000
      vertex  6.000000e+000  2.000000e+000  9.000000e+000
    endloop
  endfacet
  facet normal  5.877852e-001  0.000000e+000 -8.090170e-001
    outer loop
      vertex  6.763932e+000 -2.000000e+000  1.135114e+001
      vertex  8.763932e+000  2.000000e+000  1.280423e+001
      vertex  8.763932e+000 -2.000000e+000  1.280423e+001
    endloop
  endfacet
  facet normal  0.000000e+000  0.000000e+000 -1.000000e+000
    outer loop
      vertex  8.763932e+000 -2.000000e+000  1.280423e+001
      vertex  8.763932e+000  2.000000e+000  1.280423e+001
      vertex  1.123607e+001  2.000000e+000  1.280423e+001
    endloop
  endfacet
  facet normal  0.000000e+000  -0.000000e+000 -1.000000e+000
    outer loop
      vertex  8.763932e+000 -2.000000e+000  1.280423e+001
      vertex  1.123607e+001  2.000000e+000  1.280423e+001
      vertex  1.123607e+001 -2.000000e+000  1.280423e+001
    endloop
  endfacet
  facet normal -5.877852e-001  0.000000e+000 -8.090170e-001
    outer loop
      vertex  1.123607e+001 -2.000000e+000  1.280423e+001
      vertex  1.123607e+001  2.000000e+000  1.280423e+001
      vertex  1.323607e+001  2.000000e+000  1.135114e+001
    endloop
  endfacet
  facet normal -5.877852e-001  -0.000000e+000 -8.090170e-001
    outer loop
      vertex  1.123607e+001 -2.000000e+000  1.280423e+001
      vertex  1.323607e+001  2.000000e+000  1.135114e+001
      vertex  1.323607e+001 -2.000000e+000  1.135114e+001
    endloop
  endfacet
  facet normal -9.510565e-001  0.000000e+000 -3.090171e-001
    outer loop
      vertex  1.323607e+001 -2.000000e+000  1.135114e+001
      vertex  1.323607e+001  2.000000e+000  1.135114e+001
      vertex  1.400000e+001  2.000000e+000  9.000000e+000
    endloop
  endfacet
  facet normal -9.510565e-001  -0.000000e+000 -3.090171e-001
    outer loop
      vertex  1.323607e+001 -2.000000e+000  1.135114e+001
      vertex  1.400000e+001  2.000000e+000  9.000000e+000
      vertex  1.400000e+001 -2.000000e+000  9.000000e+000
    endloop
  endfacet
  facet normal -5.877852e-001  0.000000e+000  8.090170e-001
    outer loop
      vertex  1.123607e+001  2.000000e+000  5.195774e+000
      vertex  1.323607e+001 -2.000000e+000  6.648859e+000
      vertex  1.323607e+001  2.000000e+000  6.648859e+000
    endloop
  endfacet
  facet normal -9.510565e-001  0.000000e+000  3.090171e-001
    outer loop
      vertex  1.323607e+001  2.000000e+000  6.648859e+000
      vertex  1.323607e+001 -2.000000e+000  6.648859e+000
      vertex  1.400000e+001 -2.000000e+000  9.000000e+000
    endloop
  endfacet
  facet normal -9.510565e-001  0.000000e+000  3.090171e-001
    outer loop
      vertex  1.323607e+001  2.000000e+000  6.648859e+000
      vertex  1.400000e+001 -2.000000e+000  9.000000e+000
      vertex  1.400000e+001  2.000000e+000  9.000000e+000
    endloop
  endfacet
  facet normal -5.877852e-001  0.000000e+000  8.090170e-001
    outer loop
      vertex  1.323607e+001 -2.000000e+000  6.648859e+000
      vertex  1.123607e+001  2.000000e+000  5.195774e+000
      vertex  1.123607e+001 -2.000000e+000  5.195774e+000
    endloop
  endfacet
  facet normal  0.000000e+000  -0.000000e+000  1.000000e+000
    outer loop
      vertex  1.123607e+001 -2.000000e+000  5.195774e+000
      vertex  1.123607e+001  2.000000e+000  5.195774e+000
      vertex  8.763932e+000  2.000000e+000  5.195774e+000
    endloop
  endfacet
  facet normal  0.000000e+000  0.000000e+000  1.000000e+000
    outer loop
      vertex  1.123607e+001 -2.000000e+000  5.195774e+000
      vertex  8.763932e+000  2.000000e+000  5.195774e+000
      vertex  8.763932e+000 -2.000000e+000  5.195774e+000
    endloop
  endfacet
  facet normal  5.877852e-001  -0.000000e+000  8.090170e-001
    outer loop
      vertex  8.763932e+000 -2.000000e+000  5.195774e+000
      vertex  8.763932e+000  2.000000e+000  5.195774e+000
      vertex  6.763932e+000  2.000000e+000  6.648859e+000
    endloop
  endfacet
  facet normal  5.877852e-001  0.000000e+000  8.090170e-001
    outer loop
      vertex  8.763932e+000 -2.000000e+000  5.195774e+000
      vertex  6.763932e+000  2.000000e+000  6.648859e+000
      vertex  6.763932e+000 -2.000000e+000  6.648859e+000
    endloop
  endfacet
  facet normal  9.510565e-001  -0.000000e+000  3.090171e-001
    outer loop
      vertex  6.763932e+000 -2.000000e+000  6.648859e+000
      vertex  6.763932e+000  2.000000e+000  6.648859e+000
      vertex  6.000000e+000  2.000000e+000  9.000000e+000
    endloop
  endfacet
  facet normal  9.510565e-001  0.000000e+000  3.090171e-001
    outer loop
      vertex  6.763932e+000 -2.000000e+000  6.648859e+000
      vertex  6.000000e+000  2.000000e+000  9.000000e+000
      vertex  6.000000e+000 -2.000000e+000  9.000000e+000
    endloop
  endfacet
  facet normal  3.826835e-001  0.000000e+000 -9.238795e-001
    outer loop
      vertex  1.000000e+001  2.000000e+000  4.000000e+000
      vertex  9.292893e+000 -2.000000e+000  3.707107e+000
      vertex  9.292893e+000  2.000000e+000  3.707107e+000
    endloop
  endfacet
  facet normal  9.238794e-001  0.000000e+000 -3.826836e-001
    outer loop
      vertex  9.292893e+000  2.000000e+000  3.707107e+000
      vertex  9.292893e+000 -2.000000e+000  3.707107e+000
      vertex  9.000000e+000 -2.000000e+000  3.000000e+000
    endloop
  endfacet
  facet normal  9.238794e-001  0.000000e+000 -3.826836e-001
    outer loop
      vertex  9.292893e+000  2.000000e+000  3.707107e+000
      vertex  9.000000e+000 -2.000000e+000  3.000000e+000
      vertex  9.000000e+000  2.000000e+000  3.000000e+000
    endloop
  endfacet
  facet normal  3.826835e-001  0.000000e+000 -9.238795e-001
    outer loop
      vertex  9.292893e+000 -2.000000e+000  3.707107e+000
      vertex  1.000000e+001  2.000000e+000  4.000000e+000
      vertex  1.000000e+001 -2.000000e+000  4.000000e+000
    endloop
  endfacet
  facet normal -3.826835e-001  0.000000e+000 -9.238795e-001
    outer loop
      vertex  1.000000e+001 -2.000000e+000  4.000000e+000
      vertex  1.000000e+001  2.000000e+000  4.000000e+000
      vertex  1.070711e+001  2.000000e+000  3.707107e+000
    endloop
  endfacet
  facet normal -3.826835e-001  -0.000000e+000 -9.238795e-001
    outer loop
      vertex  1.000000e+001 -2.000000e+000  4.000000e+000
      vertex  1.070711e+001  2.000000e+000  3.707107e+000
      vertex  1.070711e+001 -2.000000e+000  3.707107e+000
    endloop
  endfacet
  facet normal -9.238794e-001  0.000000e+000 -3.826836e-001
    outer loop
      vertex  1.070711e+001 -2.000000e+000  3.707107e+000
      vertex  1.070711e+001  2.000000e+000  3.707107e+000
      vertex  1.100000e+001  2.000000e+000  3.000000e+000
    endloop
  endfacet
  facet normal -9.238794e-001  -0.000000e+000 -3.826836e-001
    outer loop
      vertex  1.070711e+001 -2.000000e+000  3.707107e+000
      vertex  1.100000e+001  2.000000e+000  3.000000e+000
      vertex  1.100000e+001 -2.000000e+000  3.000000e+000
    endloop
  endfacet
  facet normal -3.826835e-001  0.000000e+000  9.238795e-001
    outer loop
      vertex  1.000000e+001  2.000000e+000  2.000000e+000
      vertex  1.070711e+001 -2.000000e+000  2.292893e+000
      vertex  1.070711e+001  2.000000e+000  2.292893e+000
    endloop
  endfacet
  facet normal -9.238794e-001  0.000000e+000  3.826836e-001
    outer loop
      vertex  1.070711e+001  2.000000e+000  2.292893e+000
      vertex  1.070711e+001 -2.000000e+000  2.292893e+000
      vertex  1.100000e+001 -2.000000e+000  3.000000e+000
    endloop
  endfacet
  facet normal -9.238794e-001  0.000000e+000  3.826836e-001
    outer loop
      vertex  1.070711e+001  2.000000e+000  2.292893e+000
      vertex  1.100000e+001 -2.000000e+000  3.000000e+000
      vertex  1.100000e+001  2.000000e+000  3.000000e+000
    endloop
  endfacet
  facet normal -3.826835e-001  0.000000e+000  9.238795e-001
    outer loop
      vertex  1.070711e+001 -2.000000e+000  2.292893e+000
      vertex  1.000000e+001  2.000000e+000  2.000000e+000
      vertex  1.000000e+001 -2.000000e+000  2.000000e+000
    endloop
  endfacet
  facet normal  3.826835e-001  -0.000000e+000  9.238795e-001
    outer loop
      vertex  1.000000e+001 -2.000000e+000  2.000000e+000
      vertex  1.000000e+001  2.000000e+000  2.000000e+000
      vertex  9.292893e+000  2.000000e+000  2.292893e+000
    endloop
  endfacet
  facet normal  3.826835e-001  0.000000e+000  9.238795e-001
    outer loop
      vertex  1.000000e+001 -2.000000e+000  2.000000e+000
      vertex  9.292893e+000  2.000000e+000  2.292893e+000
      vertex  9.292893e+000 -2.000000e+000  2.292893e+000
    endloop
  endfacet
  facet normal  9.238794e-001  -0.000000e+000  3.826836e-001
    outer loop
      vertex  9.292893e+000 -2.000000e+000  2.292893e+000
      vertex  9.292893e+000  2.000000e+000  2.292893e+000
      vertex  9.000000e+000  2.000000e+000  3.000000e+000
    endloop
  endfacet
  facet normal  9.238794e-001  0.000000e+000  3.826836e-001
    outer loop
      vertex  9.292893e+000 -2.000000e+000  2.292893e+000
      vertex  9.000000e+000  2.000000e+000  3.000000e+000
      vertex  9.000000e+000 -2.000000e+000  3.000000e+000
    endloop
  endfacet
  facet normal  3.826837e-001  0.000000e+000 -9.238794e-001
    outer loop
      vertex  1.000000e+001  2.000000e+000  1.600000e+001
      vertex  9.292893e+000 -2.000000e+000  1.570711e+001
      vertex  9.292893e+000  2.000000e+000  1.570711e+001
    endloop
  endfacet
  facet normal  9.238794e-001  0.000000e+000 -3.826837e-001
    outer loop
      vertex  9.292893e+000  2.000000e+000  1.570711e+001
      vertex  9.292893e+000 -2.000000e+000  1.570711e+001
      vertex  9.000000e+000 -2.000000e+000  1.500000e+001
    endloop
  endfacet
  facet normal  9.238794e-001  0.000000e+000 -3.826837e-001
    outer loop
      vertex  9.292893e+000  2.000000e+000  1.570711e+001
      vertex  9.000000e+000 -2.000000e+000  1.500000e+001
      vertex  9.000000e+000  2.000000e+000  1.500000e+001
    endloop
  endfacet
  facet normal  3.826837e-001  0.000000e+000 -9.238794e-001
    outer loop
      vertex  9.292893e+000 -2.000000e+000  1.570711e+001
      vertex  1.000000e+001  2.000000e+000  1.600000e+001
      vertex  1.000000e+001 -2.000000e+000  1.600000e+001
    endloop
  endfacet
  facet normal -3.826837e-001  0.000000e+000 -9.238794e-001
    outer loop
      vertex  1.000000e+001 -2.000000e+000  1.600000e+001
      vertex  1.000000e+001  2.000000e+000  1.600000e+001
      vertex  1.070711e+001  2.000000e+000  1.570711e+001
    endloop
  endfacet
  facet normal -3.826837e-001  -0.000000e+000 -9.238794e-001
    outer loop
      vertex  1.000000e+001 -2.000000e+000  1.600000e+001
      vertex  1.070711e+001  2.000000e+000  1.570711e+001
      vertex  1.070711e+001 -2.000000e+000  1.570711e+001
    endloop
  endfacet
  facet normal -9.238794e-001  0.000000e+000 -3.826837e-001
    outer loop
      vertex  1.070711e+001 -2.000000e+000  1.570711e+001
      vertex  1.070711e+001  2.000000e+000  1.570711e+001
      vertex  1.100000e+001  2.000000e+000  1.500000e+001
    endloop
  endfacet
  facet normal -9.238794e-001  -0.000000e+000 -3.826837e-001
    outer loop
      vertex  1.070711e+001 -2.000000e+000  1.570711e+001
      vertex  1.100000e+001  2.000000e+000  1.500000e+001
      vertex  1.100000e+001 -2.000000e+000  1.500000e+001
    endloop
  endfacet
  facet normal -3.826837e-001  0.000000e+000  9.238794e-001
    outer loop
      vertex  1.000000e+001  2.000000e+000  1.400000e+001
      vertex  1.070711e+001 -2.000000e+000  1.429289e+001
      vertex  1.070711e+001  2.000000e+000  1.429289e+001
    endloop
  endfacet
  facet normal -9.238794e-001  0.000000e+000  3.826837e-001
    outer loop
      vertex  1.070711e+001  2.000000e+000  1.429289e+001
      vertex  1.070711e+001 -2.000000e+000  1.429289e+001
      vertex  1.100000e+001 -2.000000e+000  1.500000e+001
    endloop
  endfacet
  facet normal -9.238794e-001  0.000000e+000  3.826837e-001
    outer loop
      vertex  1.070711e+001  2.000000e+000  1.429289e+001
      vertex  1.100000e+001 -2.000000e+000  1.500000e+001
      vertex  1.100000e+001  2.000000e+000  1.500000e+001
    endloop
  endfacet
  facet normal -3.826837e-001  0.000000e+000  9.238794e-001
    outer loop
      vertex  1.070711e+001 -2.000000e+000  1.429289e+001
      vertex  1.000000e+001  2.000000e+000  1.400000e+001
      vertex  1.000000e+001 -2.000000e+000  1.400000e+001
    endloop
  endfacet
  facet normal  3.826837e-001  -0.000000e+000  9.238794e-001
    outer loop
      vertex  1.000000e+001 -2.000000e+000  1.400000e+001
      vertex  1.000000e+001  2.000000e+000  1.400000e+001
      vertex  9.292893e+000  2.000000e+000  1.429289e+001
    endloop
  endfacet
  facet normal  3.826837e-001  0.000000e+000  9.238794e-001
    outer loop
      vertex  1.000000e+001 -2.000000e+000  1.400000e+001
      vertex  9.292893e+000  2.000000e+000  1.429289e+001
      vertex  9.292893e+000 -2.000000e+000  1.429289e+001
    endloop
  endfacet
  facet normal  9.238794e-001  -0.000000e+000  3.826837e-001
    outer loop
      vertex  9.292893e+000 -2.000000e+000  1.429289e+001
      vertex  9.292893e+000  2.000000e+000  1.429289e+001
      vertex  9.000000e+000  2.000000e+000  1.500000e+001
    endloop
  endfacet
  facet normal  9.238794e-001  0.000000e+000  3.826837e-001
    outer loop
      vertex  9.292893e+000 -2.000000e+000  1.429289e+001
      vertex  9.000000e+000  2.000000e+000  1.500000e+001
      vertex  9.000000e+000 -2.000000e+000  1.500000e+001
    endloop
  endfacet
  facet normal  0.000000e+000  0.000000e+000 -9.999999e-001
    outer loop
      vertex  6.123032e-017  1.000000e+000  0.000000e+000
      vertex -1.414214e+000  1.414214e+000  0.000000e+000
      vertex  0.000000e+000  2.000000e+000  0.000000e+000
    endloop
  endfacet
  facet normal  -0.000000e+000  0.000000e+000 -9.999999e-001
    outer loop
      vertex -7.071068e-001 -7.071068e-001  0.000000e+000
      vertex -1.836910e-016 -1.000000e+000  0.000000e+000
      vertex -1.414214e+000 -1.414214e+000  0.000000e+000
    endloop
  endfacet
  facet normal  0.000000e+000  0.000000e+000 -1.000000e+000
    outer loop
      vertex  2.541421e+001  1.414214e+000  0.000000e+000
      vertex  1.700000e+001  1.000000e+000  0.000000e+000
      vertex  2.400000e+001  2.000000e+000  0.000000e+000
    endloop
  endfacet
  facet normal  0.000000e+000  0.000000e+000 -9.999999e-001
    outer loop
      vertex -3.673819e-016 -2.000000e+000  0.000000e+000
      vertex -1.414214e+000 -1.414214e+000  0.000000e+000
      vertex -1.836910e-016 -1.000000e+000  0.000000e+000
    endloop
  endfacet
  facet normal  0.000000e+000  -0.000000e+000 -1.000000e+000
    outer loop
      vertex -3.673819e-016 -2.000000e+000  0.000000e+000
      vertex -1.836910e-016 -1.000000e+000  0.000000e+000
      vertex  1.700000e+001 -1.000000e+000  0.000000e+000
    endloop
  endfacet
  facet normal  0.000000e+000  -0.000000e+000 -9.999999e-001
    outer loop
      vertex -3.673819e-016 -2.000000e+000  0.000000e+000
      vertex  1.700000e+001 -1.000000e+000  0.000000e+000
      vertex  2.541421e+001 -1.414214e+000  0.000000e+000
    endloop
  endfacet
  facet normal  0.000000e+000  0.000000e+000 -1.000000e+000
    outer loop
      vertex -3.673819e-016 -2.000000e+000  0.000000e+000
      vertex  2.541421e+001 -1.414214e+000  0.000000e+000
      vertex  2.400000e+001 -2.000000e+000  0.000000e+000
    endloop
  endfacet
  facet normal  0.000000e+000  0.000000e+000 -1.000000e+000
    outer loop
      vertex  1.629289e+001  7.071068e-001  0.000000e+000
      vertex  6.123032e-017  1.000000e+000  0.000000e+000
      vertex  1.700000e+001  1.000000e+000  0.000000e+000
    endloop
  endfacet
  facet normal  0.000000e+000  0.000000e+000 -1.000000e+000
    outer loop
      vertex  1.700000e+001  1.000000e+000  0.000000e+000
      vertex  6.123032e-017  1.000000e+000  0.000000e+000
      vertex  0.000000e+000  2.000000e+000  0.000000e+000
    endloop
  endfacet
  facet normal  0.000000e+000  0.000000e+000 -1.000000e+000
    outer loop
      vertex  1.700000e+001  1.000000e+000  0.000000e+000
      vertex  0.000000e+000  2.000000e+000  0.000000e+000
      vertex  2.400000e+001  2.000000e+000  0.000000e+000
    endloop
  endfacet
  facet normal  0.000000e+000  0.000000e+000 -1.000000e+000
    outer loop
      vertex  6.123032e-017  1.000000e+000  0.000000e+000
      vertex  1.629289e+001  7.071068e-001  0.000000e+000
      vertex  7.071068e-001  7.071068e-001  0.000000e+000
    endloop
  endfacet
  facet normal  0.000000e+000  0.000000e+000 -1.000000e+000
    outer loop
      vertex  7.071068e-001  7.071068e-001  0.000000e+000
      vertex  1.629289e+001  7.071068e-001  0.000000e+000
      vertex  1.600000e+001  1.224606e-016  0.000000e+000
    endloop
  endfacet
  facet normal  -0.000000e+000  0.000000e+000 -1.000000e+000
    outer loop
      vertex  7.071068e-001  7.071068e-001  0.000000e+000
      vertex  1.600000e+001  1.224606e-016  0.000000e+000
      vertex  1.000000e+000  0.000000e+000  0.000000e+000
    endloop
  endfacet
  facet normal  0.000000e+000  0.000000e+000 -1.000000e+000
    outer loop
      vertex  1.000000e+000  0.000000e+000  0.000000e+000
      vertex  1.600000e+001  1.224606e-016  0.000000e+000
      vertex  1.629289e+001 -7.071068e-001  0.000000e+000
    endloop
  endfacet
  facet normal  0.000000e+000  0.000000e+000 -1.000000e+000
    outer loop
      vertex  1.000000e+000  0.000000e+000  0.000000e+000
      vertex  1.629289e+001 -7.071068e-001  0.000000e+000
      vertex  7.071068e-001 -7.071068e-001  0.000000e+000
    endloop
  endfacet
  facet normal  0.000000e+000  0.000000e+000 -1.000000e+000
    outer loop
      vertex  7.071068e-001 -7.071068e-001  0.000000e+000
      vertex  1.629289e+001 -7.071068e-001  0.000000e+000
      vertex  1.700000e+001 -1.000000e+000  0.000000e+000
    endloop
  endfacet
  facet normal  0.000000e+000  0.000000e+000 -1.000000e+000
    outer loop
      vertex  7.071068e-001 -7.071068e-001  0.000000e+000
      vertex  1.700000e+001 -1.000000e+000  0.000000e+000
      vertex -1.836910e-016 -1.000000e+000  0.000000e+000
    endloop
  endfacet
  facet normal  0.000000e+000  0.000000e+000 -9.999999e-001
    outer loop
      vertex  6.123032e-017  1.000000e+000  0.000000e+000
      vertex -7.071068e-001  7.071068e-001  0.000000e+000
      vertex -1.414214e+000  1.414214e+000  0.000000e+000
    endloop
  endfacet
  facet normal  0.000000e+000  0.000000e+000 -9.999999e-001
    outer loop
      vertex -1.414214e+000  1.414214e+000  0.000000e+000
      vertex -7.071068e-001  7.071068e-001  0.000000e+000
      vertex -1.000000e+000  1.224606e-016  0.000000e+000
    endloop
  endfacet
  facet normal  -0.000000e+000  0.000000e+000 -9.999999e-001
    outer loop
      vertex -1.414214e+000  1.414214e+000  0.000000e+000
      vertex -1.000000e+000  1.224606e-016  0.000000e+000
      vertex -2.000000e+000 -6.432571e-016  0.000000e+000
    endloop
  endfacet
  facet normal  0.000000e+000  0.000000e+000 -9.999999e-001
    outer loop
      vertex -2.000000e+000 -6.432571e-016  0.000000e+000
      vertex -1.000000e+000  1.224606e-016  0.000000e+000
      vertex -7.071068e-001 -7.071068e-001  0.000000e+000
    endloop
  endfacet
  facet normal  -0.000000e+000  0.000000e+000 -9.999999e-001
    outer loop
      vertex -2.000000e+000 -6.432571e-016  0.000000e+000
      vertex -7.071068e-001 -7.071068e-001  0.000000e+000
      vertex -1.414214e+000 -1.414214e+000  0.000000e+000
    endloop
  endfacet
  facet normal  0.000000e+000  0.000000e+000 -9.999999e-001
    outer loop
      vertex  1.800000e+001  0.000000e+000  0.000000e+000
      vertex  1.770711e+001  7.071068e-001  0.000000e+000
      vertex  2.600000e+001 -4.898425e-016  0.000000e+000
    endloop
  endfacet
  facet normal  0.000000e+000  0.000000e+000 -9.999999e-001
    outer loop
      vertex  2.600000e+001 -4.898425e-016  0.000000e+000
      vertex  1.770711e+001  7.071068e-001  0.000000e+000
      vertex  1.700000e+001  1.000000e+000  0.000000e+000
    endloop
  endfacet
  facet normal  0.000000e+000  0.000000e+000 -9.999999e-001
    outer loop
      vertex  2.600000e+001 -4.898425e-016  0.000000e+000
      vertex  1.700000e+001  1.000000e+000  0.000000e+000
      vertex  2.541421e+001  1.414214e+000  0.000000e+000
    endloop
  endfacet
  facet normal  0.000000e+000  -0.000000e+000 -1.000000e+000
    outer loop
      vertex  1.700000e+001 -1.000000e+000  0.000000e+000
      vertex  1.770711e+001 -7.071068e-001  0.000000e+000
      vertex  2.541421e+001 -1.414214e+000  0.000000e+000
    endloop
  endfacet
  facet normal  0.000000e+000  0.000000e+000 -9.999999e-001
    outer loop
      vertex  2.541421e+001 -1.414214e+000  0.000000e+000
      vertex  1.770711e+001 -7.071068e-001  0.000000e+000
      vertex  1.800000e+001  0.000000e+000  0.000000e+000
    endloop
  endfacet
  facet normal  0.000000e+000  0.000000e+000 -9.999999e-001
    outer loop
      vertex  2.541421e+001 -1.414214e+000  0.000000e+000
      vertex  1.800000e+001  0.000000e+000  0.000000e+000
      vertex  2.600000e+001 -4.898425e-016  0.000000e+000
    endloop
  endfacet
  facet normal  3.826831e-001 -9.238797e-001  0.000000e+000
    outer loop
      vertex  1.700000e+001  1.000000e+000  0.000000e+000
      vertex  1.629289e+001  7.071068e-001  1.800000e+001
      vertex  1.629289e+001  7.071068e-001  0.000000e+000
    endloop
  endfacet
  facet normal  9.238799e-001 -3.826826e-001  0.000000e+000
    outer loop
      vertex  1.629289e+001  7.071068e-001  0.000000e+000
      vertex  1.629289e+001  7.071068e-001  1.800000e+001
      vertex  1.600000e+001  1.224606e-016  1.800000e+001
    endloop
  endfacet
  facet normal  9.238799e-001 -3.826826e-001  0.000000e+000
    outer loop
      vertex  1.629289e+001  7.071068e-001  0.000000e+000
      vertex  1.600000e+001  1.224606e-016  1.800000e+001
      vertex  1.600000e+001  1.224606e-016  0.000000e+000
    endloop
  endfacet
  facet normal  3.826831e-001 -9.238797e-001  0.000000e+000
    outer loop
      vertex  1.629289e+001  7.071068e-001  1.800000e+001
      vertex  1.700000e+001  1.000000e+000  0.000000e+000
      vertex  1.700000e+001  1.000000e+000  1.800000e+001
    endloop
  endfacet
  facet normal -3.826831e-001 -9.238797e-001  -0.000000e+000
    outer loop
      vertex  1.700000e+001  1.000000e+000  1.800000e+001
      vertex  1.700000e+001  1.000000e+000  0.000000e+000
      vertex  1.770711e+001  7.071068e-001  0.000000e+000
    endloop
  endfacet
  facet normal -3.826831e-001 -9.238797e-001  0.000000e+000
    outer loop
      vertex  1.700000e+001  1.000000e+000  1.800000e+001
      vertex  1.770711e+001  7.071068e-001  0.000000e+000
      vertex  1.770711e+001  7.071068e-001  1.800000e+001
    endloop
  endfacet
  facet normal -9.238799e-001 -3.826826e-001  -0.000000e+000
    outer loop
      vertex  1.770711e+001  7.071068e-001  1.800000e+001
      vertex  1.770711e+001  7.071068e-001  0.000000e+000
      vertex  1.800000e+001  0.000000e+000  0.000000e+000
    endloop
  endfacet
  facet normal -9.238799e-001 -3.826826e-001  0.000000e+000
    outer loop
      vertex  1.770711e+001  7.071068e-001  1.800000e+001
      vertex  1.800000e+001  0.000000e+000  0.000000e+000
      vertex  1.800000e+001  0.000000e+000  1.800000e+001
    endloop
  endfacet
  facet normal -3.826831e-001  9.238797e-001  0.000000e+000
    outer loop
      vertex  1.700000e+001 -1.000000e+000  0.000000e+000
      vertex  1.770711e+001 -7.071068e-001  1.800000e+001
      vertex  1.770711e+001 -7.071068e-001  0.000000e+000
    endloop
  endfacet
  facet normal -9.238799e-001  3.826826e-001  0.000000e+000
    outer loop
      vertex  1.770711e+001 -7.071068e-001  0.000000e+000
      vertex  1.770711e+001 -7.071068e-001  1.800000e+001
      vertex  1.800000e+001  0.000000e+000  1.800000e+001
    endloop
  endfacet
  facet normal -9.238799e-001  3.826826e-001  0.000000e+000
    outer loop
      vertex  1.770711e+001 -7.071068e-001  0.000000e+000
      vertex  1.800000e+001  0.000000e+000  1.800000e+001
      vertex  1.800000e+001  0.000000e+000  0.000000e+000
    endloop
  endfacet
  facet normal -3.826831e-001  9.238797e-001  0.000000e+000
    outer loop
      vertex  1.770711e+001 -7.071068e-001  1.800000e+001
      vertex  1.700000e+001 -1.000000e+000  0.000000e+000
      vertex  1.700000e+001 -1.000000e+000  1.800000e+001
    endloop
  endfacet
  facet normal  3.826831e-001  9.238797e-001  0.000000e+000
    outer loop
      vertex  1.700000e+001 -1.000000e+000  1.800000e+001
      vertex  1.700000e+001 -1.000000e+000  0.000000e+000
      vertex  1.629289e+001 -7.071068e-001  0.000000e+000
    endloop
  endfacet
  facet normal  3.826831e-001  9.238797e-001  -0.000000e+000
    outer loop
      vertex  1.700000e+001 -1.000000e+000  1.800000e+001
      vertex  1.629289e+001 -7.071068e-001  0.000000e+000
      vertex  1.629289e+001 -7.071068e-001  1.800000e+001
    endloop
  endfacet
  facet normal  9.238799e-001  3.826826e-001  0.000000e+000
    outer loop
      vertex  1.629289e+001 -7.071068e-001  1.800000e+001
      vertex  1.629289e+001 -7.071068e-001  0.000000e+000
      vertex  1.600000e+001  1.224606e-016  0.000000e+000
    endloop
  endfacet
  facet normal  9.238799e-001  3.826826e-001  -0.000000e+000
    outer loop
      vertex  1.629289e+001 -7.071068e-001  1.800000e+001
      vertex  1.600000e+001  1.224606e-016  0.000000e+000
      vertex  1.600000e+001  1.224606e-016  1.800000e+001
    endloop
  endfacet
  facet normal  3.826834e-001 -9.238794e-001  0.000000e+000
    outer loop
      vertex  6.123032e-017  1.000000e+000  0.000000e+000
      vertex -7.071068e-001  7.071068e-001  1.800000e+001
      vertex -7.071068e-001  7.071068e-001  0.000000e+000
    endloop
  endfacet
  facet normal  9.238794e-001 -3.826834e-001  0.000000e+000
    outer loop
      vertex -7.071068e-001  7.071068e-001  0.000000e+000
      vertex -7.071068e-001  7.071068e-001  1.800000e+001
      vertex -1.000000e+000  1.224606e-016  1.800000e+001
    endloop
  endfacet
  facet normal  9.238794e-001 -3.826834e-001  0.000000e+000
    outer loop
      vertex -7.071068e-001  7.071068e-001  0.000000e+000
      vertex -1.000000e+000  1.224606e-016  1.800000e+001
      vertex -1.000000e+000  1.224606e-016  0.000000e+000
    endloop
  endfacet
  facet normal  3.826834e-001 -9.238794e-001  0.000000e+000
    outer loop
      vertex -7.071068e-001  7.071068e-001  1.800000e+001
      vertex  6.123032e-017  1.000000e+000  0.000000e+000
      vertex  6.123032e-017  1.000000e+000  1.800000e+001
    endloop
  endfacet
  facet normal -3.826834e-001 -9.238794e-001  -0.000000e+000
    outer loop
      vertex  6.123032e-017  1.000000e+000  1.800000e+001
      vertex  6.123032e-017  1.000000e+000  0.000000e+000
      vertex  7.071068e-001  7.071068e-001  0.000000e+000
    endloop
  endfacet
  facet normal -3.826834e-001 -9.238794e-001  0.000000e+000
    outer loop
      vertex  6.123032e-017  1.000000e+000  1.800000e+001
      vertex  7.071068e-001  7.071068e-001  0.000000e+000
      vertex  7.071068e-001  7.071068e-001  1.800000e+001
    endloop
  endfacet
  facet normal -9.238794e-001 -3.826834e-001  -0.000000e+000
    outer loop
      vertex  7.071068e-001  7.071068e-001  1.800000e+001
      vertex  7.071068e-001  7.071068e-001  0.000000e+000
      vertex  1.000000e+000  0.000000e+000  0.000000e+000
    endloop
  endfacet
  facet normal -9.238794e-001 -3.826834e-001  0.000000e+000
    outer loop
      vertex  7.071068e-001  7.071068e-001  1.800000e+001
      vertex  1.000000e+000  0.000000e+000  0.000000e+000
      vertex  1.000000e+000  0.000000e+000  1.800000e+001
    endloop
  endfacet
  facet normal -3.826834e-001  9.238794e-001  0.000000e+000
    outer loop
      vertex -1.836910e-016 -1.000000e+000  0.000000e+000
      vertex  7.071068e-001 -7.071068e-001  1.800000e+001
      vertex  7.071068e-001 -7.071068e-001  0.000000e+000
    endloop
  endfacet
  facet normal -9.238794e-001  3.826834e-001  0.000000e+000
    outer loop
      vertex  7.071068e-001 -7.071068e-001  0.000000e+000
      vertex  7.071068e-001 -7.071068e-001  1.800000e+001
      vertex  1.000000e+000  0.000000e+000  1.800000e+001
    endloop
  endfacet
  facet normal -9.238794e-001  3.826834e-001  0.000000e+000
    outer loop
      vertex  7.071068e-001 -7.071068e-001  0.000000e+000
      vertex  1.000000e+000  0.000000e+000  1.800000e+001
      vertex  1.000000e+000  0.000000e+000  0.000000e+000
    endloop
  endfacet
  facet normal -3.826834e-001  9.238794e-001  0.000000e+000
    outer loop
      vertex  7.071068e-001 -7.071068e-001  1.800000e+001
      vertex -1.836910e-016 -1.000000e+000  0.000000e+000
      vertex -1.836910e-016 -1.000000e+000  1.800000e+001
    endloop
  endfacet
  facet normal  3.826834e-001  9.238794e-001  0.000000e+000
    outer loop
      vertex -1.836910e-016 -1.000000e+000  1.800000e+001
      vertex -1.836910e-016 -1.000000e+000  0.000000e+000
      vertex -7.071068e-001 -7.071068e-001  0.000000e+000
    endloop
  endfacet
  facet normal  3.826834e-001  9.238794e-001  -0.000000e+000
    outer loop
      vertex -1.836910e-016 -1.000000e+000  1.800000e+001
      vertex -7.071068e-001 -7.071068e-001  0.000000e+000
      vertex -7.071068e-001 -7.071068e-001  1.800000e+001
    endloop
  endfacet
  facet normal  9.238794e-001  3.826834e-001  0.000000e+000
    outer loop
      vertex -7.071068e-001 -7.071068e-001  1.800000e+001
      vertex -7.071068e-001 -7.071068e-001  0.000000e+000
      vertex -1.000000e+000  1.224606e-016  0.000000e+000
    endloop
  endfacet
  facet normal  9.238794e-001  3.826834e-001  -0.000000e+000
    outer loop
      vertex -7.071068e-001 -7.071068e-001  1.800000e+001
      vertex -1.000000e+000  1.224606e-016  0.000000e+000
      vertex -1.000000e+000  1.224606e-016  1.800000e+001
    endloop
  endfacet
  facet normal -3.826834e-001 -9.238794e-001  -0.000000e+000
    outer loop
      vertex -3.673819e-016 -2.000000e+000  0.000000e+000
      vertex -3.673819e-016 -2.000000e+000  1.800000e+001
      vertex -1.414214e+000 -1.414214e+000  0.000000e+000
    endloop
  endfacet
  facet normal -3.826834e-001 -9.238794e-001  0.000000e+000
    outer loop
      vertex -1.414214e+000 -1.414214e+000  0.000000e+000
      vertex -3.673819e-016 -2.000000e+000  1.800000e+001
      vertex -1.414214e+000 -1.414214e+000  1.800000e+001
    endloop
  endfacet
  facet normal -9.238794e-001 -3.826834e-001  -0.000000e+000
    outer loop
      vertex -1.414214e+000 -1.414214e+000  0.000000e+000
      vertex -1.414214e+000 -1.414214e+000  1.800000e+001
      vertex -2.000000e+000 -6.432571e-016  0.000000e+000
    endloop
  endfacet
  facet normal -9.238794e-001 -3.826834e-001  0.000000e+000
    outer loop
      vertex -2.000000e+000 -6.432571e-016  0.000000e+000
      vertex -1.414214e+000 -1.414214e+000  1.800000e+001
      vertex -2.000000e+000 -6.432571e-016  1.800000e+001
    endloop
  endfacet
  facet normal -9.238794e-001  3.826834e-001  0.000000e+000
    outer loop
      vertex -2.000000e+000 -6.432571e-016  0.000000e+000
      vertex -2.000000e+000 -6.432571e-016  1.800000e+001
      vertex -1.414214e+000  1.414214e+000  0.000000e+000
    endloop
  endfacet
  facet normal -9.238794e-001  3.826834e-001  0.000000e+000
    outer loop
      vertex -1.414214e+000  1.414214e+000  0.000000e+000
      vertex -2.000000e+000 -6.432571e-016  1.800000e+001
      vertex -1.414214e+000  1.414214e+000  1.800000e+001
    endloop
  endfacet
  facet normal -3.826834e-001  9.238794e-001  0.000000e+000
    outer loop
      vertex -1.414214e+000  1.414214e+000  0.000000e+000
      vertex -1.414214e+000  1.414214e+000  1.800000e+001
      vertex  0.000000e+000  2.000000e+000  0.000000e+000
    endloop
  endfacet
  facet normal -3.826834e-001  9.238794e-001  0.000000e+000
    outer loop
      vertex  0.000000e+000  2.000000e+000  0.000000e+000
      vertex -1.414214e+000  1.414214e+000  1.800000e+001
      vertex  0.000000e+000  2.000000e+000  1.800000e+001
    endloop
  endfacet
endsolid CATIA STL
